<?xml version="1.0" standalone="no"?>
<!DOCTYPE svg PUBLIC "-//W3C//DTD SVG 20010904//EN"
 "http://www.w3.org/TR/2001/REC-SVG-20010904/DTD/svg10.dtd">
<svg version="1.0" xmlns="http://www.w3.org/2000/svg"
 width="552.000000pt" height="312.000000pt" viewBox="0 0 552.000000 312.000000"
 preserveAspectRatio="xMidYMid meet">

<g transform="translate(0.000000,312.000000) scale(0.100000,-0.100000)"
fill="#000000" stroke="none">
<path d="M2004 2554 c3 -9 6 -22 6 -30 0 -11 6 -13 20 -9 16 5 20 2 20 -19 0
-19 5 -26 19 -26 13 0 21 -8 23 -22 2 -15 11 -24 25 -26 13 -2 23 -12 26 -25
4 -19 4 -18 6 5 1 20 -4 27 -21 30 -14 2 -24 12 -28 28 -4 16 -12 24 -23 22
-12 -2 -17 4 -17 23 0 18 -5 25 -20 25 -13 0 -20 7 -20 20 0 11 -5 20 -11 20
-6 0 -8 -7 -5 -16z"/>
<path d="M4695 2416 c-43 -56 -53 -108 -48 -231 4 -86 1 -137 -17 -235 -12
-72 -23 -178 -25 -250 -1 -69 -6 -134 -10 -145 -13 -33 -89 -155 -97 -155 -4
0 -17 19 -29 42 -44 85 -60 153 -70 283 -7 96 -17 154 -39 220 -15 50 -38 131
-49 180 -11 50 -26 106 -35 125 l-14 35 -9 -30 c-4 -16 -8 -59 -7 -95 0 -53 8
-81 38 -148 l37 -82 -17 -107 c-20 -133 -15 -191 36 -353 21 -69 46 -172 55
-230 8 -58 18 -120 21 -137 3 -18 9 -33 14 -33 13 0 45 48 70 107 29 69 59 95
109 97 52 1 105 -41 145 -113 42 -79 40 -149 -7 -264 -40 -95 -42 -103 -27
-141 l9 -25 56 57 c33 34 58 53 62 47 5 -6 20 -18 36 -28 15 -10 27 -24 27
-32 0 -9 9 -15 23 -15 12 0 31 -7 41 -15 25 -19 36 -19 36 0 0 20 -37 38 -66
31 -21 -6 -24 -3 -24 19 0 37 -17 65 -39 65 -10 0 -21 9 -24 20 -3 11 -1 18 3
15 5 -3 12 9 15 27 10 46 30 82 90 163 29 38 61 86 70 105 10 19 38 57 63 84
38 40 43 50 29 57 -18 11 -62 -4 -69 -23 -11 -28 -101 -139 -130 -159 -28 -20
-27 -17 16 45 25 37 46 72 46 78 0 7 27 67 61 134 65 129 83 200 56 222 -20
17 -46 5 -53 -27 -26 -114 -46 -149 -111 -194 -79 -54 -121 -99 -158 -167 -19
-36 -35 -59 -35 -52 0 7 18 46 41 87 27 50 69 164 125 342 90 287 140 430 186
531 27 62 38 142 19 142 -12 0 -61 -81 -146 -240 -37 -69 -92 -162 -123 -208
-90 -132 -99 -150 -130 -279 -17 -67 -42 -146 -56 -175 l-26 -53 4 90 c3 59
19 147 46 255 54 219 60 267 49 397 -8 94 -7 123 10 210 21 105 18 156 -11
161 -9 2 -28 -13 -43 -32z m98 -721 c-3 -9 -8 -14 -10 -11 -3 3 -2 9 2 15 9
16 15 13 8 -4z"/>
<path d="M2983 2385 c-7 -8 -13 -19 -13 -25 0 -6 -4 -9 -8 -6 -4 2 -9 -5 -9
-16 -2 -16 1 -18 10 -9 17 17 27 13 20 -6 -5 -12 1 -10 18 7 14 14 26 33 27
44 1 14 -2 16 -11 7 -16 -16 -27 -14 -21 4 8 19 3 19 -13 0z"/>
<path d="M3770 2310 c0 -15 -7 -20 -25 -20 -18 0 -25 -5 -25 -20 0 -16 -5 -19
-30 -13 -28 5 -30 4 -29 -23 1 -23 3 -25 6 -7 4 19 9 21 34 16 25 -5 29 -3 29
17 0 18 4 21 24 18 20 -4 25 0 28 24 3 15 1 28 -4 28 -4 0 -8 -9 -8 -20z"/>
<path d="M2262 2179 c-59 -35 -89 -81 -78 -122 3 -14 22 -45 42 -68 l37 -44
-7 59 c-6 46 -5 57 6 54 8 -3 17 7 24 26 6 19 22 37 42 46 33 16 42 46 20 68
-17 17 -27 15 -86 -19z"/>
<path d="M2540 2156 c0 -2 8 -10 18 -17 15 -13 16 -12 3 4 -13 16 -21 21 -21
13z"/>
<path d="M700 2090 c0 -14 15 -58 34 -97 20 -42 39 -100 45 -144 6 -41 25
-101 41 -135 26 -54 28 -64 19 -100 -8 -25 -9 -87 -4 -179 6 -124 11 -151 41
-235 19 -52 45 -113 58 -135 13 -22 30 -59 36 -82 7 -24 17 -43 22 -43 9 0 4
71 -14 183 -5 38 -7 88 -4 112 5 32 0 66 -19 131 -40 142 -34 248 22 336 13
21 23 43 23 50 0 28 -78 127 -167 213 -52 50 -103 104 -113 120 l-20 30 0 -25z"/>
<path d="M1564 2060 c-42 -27 -113 -158 -93 -171 8 -5 22 -7 32 -5 9 2 17 -2
17 -9 0 -7 13 -18 29 -23 25 -9 30 -8 34 10 6 20 -6 49 -30 75 -14 15 -6 46 8
37 6 -3 25 10 43 30 37 42 60 45 80 14 31 -51 29 -77 -9 -123 -41 -51 -43 -61
-12 -69 38 -10 65 -7 71 10 12 32 6 146 -10 180 -30 62 -101 81 -160 44z"/>
<path d="M3062 2035 c-41 -35 -57 -97 -47 -193 11 -115 10 -122 -19 -190 -15
-35 -30 -79 -33 -97 -5 -30 -3 -35 21 -41 l26 -6 0 -123 0 -123 -71 -234 c-39
-128 -71 -244 -71 -258 1 -26 88 -429 94 -435 2 -1 18 0 36 2 l32 5 0 127 c0
97 -5 144 -21 201 -11 41 -18 84 -15 96 9 34 107 177 116 167 4 -4 23 -55 41
-112 l34 -103 168 -156 168 -155 25 25 26 25 -71 99 c-39 54 -102 127 -139
161 l-67 62 -5 193 c-5 176 -7 197 -29 243 -27 59 -51 139 -51 176 0 25 2 26
53 22 69 -5 80 3 65 49 -10 34 -9 40 16 73 15 19 31 33 36 30 5 -3 15 -24 21
-45 14 -45 19 -48 42 -22 44 49 63 159 37 221 -7 17 -41 53 -76 81 -45 36 -74
69 -105 122 -23 40 -57 88 -75 106 -28 28 -39 32 -82 32 -39 0 -57 -6 -80 -25z
m78 -47 c43 -44 49 -71 25 -105 -13 -18 -13 -27 1 -74 l16 -53 -31 -28 c-42
-37 -66 -38 -55 0 4 15 6 45 5 66 -2 35 -10 51 -62 114 -21 26 16 122 47 122
8 0 33 -19 54 -42z"/>
<path d="M552 1899 c-17 -72 -15 -263 3 -332 20 -76 119 -295 158 -350 18 -25
56 -63 85 -86 35 -28 73 -74 110 -132 31 -49 60 -89 65 -89 9 0 -7 33 -73 150
-52 93 -109 273 -130 415 -17 113 -55 225 -96 287 -20 29 -52 82 -71 118 -19
36 -36 66 -37 67 -1 2 -8 -20 -14 -48z"/>
<path d="M2176 1865 c-59 -21 -83 -51 -102 -129 -14 -53 -15 -72 -6 -87 6 -10
15 -36 18 -59 4 -22 12 -40 18 -40 6 0 21 -3 34 -6 19 -5 22 -2 22 22 0 47 10
21 25 -67 18 -99 20 -189 4 -189 -6 0 -10 -25 -10 -62 1 -35 -2 -80 -5 -102
-5 -27 -2 -41 7 -48 10 -7 8 -8 -8 -3 -12 3 -24 1 -28 -6 -8 -13 14 -31 28
-22 4 3 11 -4 14 -16 12 -47 19 -16 16 74 l-3 95 78 0 c65 0 212 15 218 23 1
1 -4 36 -11 77 -7 41 -16 119 -19 173 -7 94 -6 97 14 97 18 0 20 4 14 43 -19
144 -40 199 -86 227 -53 32 -66 27 -61 -22 8 -85 -29 -89 -79 -8 -34 55 -35
55 -92 35z"/>
<path d="M3669 1760 c-23 -22 -29 -35 -24 -51 5 -13 3 -19 -3 -15 -11 7 -18
-15 -28 -97 -6 -58 -6 -59 17 -55 19 2 25 10 27 36 2 19 -1 46 -7 62 -7 22 -6
32 5 41 8 6 14 22 14 35 0 13 5 24 11 24 6 0 8 7 5 16 -3 8 -2 13 3 10 5 -3
14 1 21 9 24 29 -10 16 -41 -15z"/>
<path d="M2062 1473 c-17 -23 -28 -44 -24 -46 4 -3 28 -8 55 -12 27 -4 51 -14
57 -24 7 -11 9 3 10 50 l0 67 -33 4 c-29 3 -37 -2 -65 -39z"/>
<path d="M1796 1449 c-3 -34 -6 -70 -6 -80 0 -27 33 -24 45 3 10 22 28 31 88
43 40 8 36 41 -8 59 -19 8 -35 20 -35 25 0 6 -17 11 -39 11 l-38 0 -7 -61z"/>
<path d="M1554 1339 c-12 -20 13 -30 67 -27 42 2 55 7 57 21 3 15 -5 17 -57
17 -33 0 -63 -5 -67 -11z"/>
<path d="M1750 1165 c0 -152 -1 -156 -20 -150 -16 5 -20 2 -20 -14 0 -21 4
-21 235 -21 150 0 235 -4 235 -10 0 -9 -245 -16 -387 -12 l-43 1 0 -65 c0 -36
3 -64 8 -62 103 53 125 60 166 54 55 -9 124 -52 156 -99 14 -20 32 -37 42 -37
10 0 22 -16 31 -44 14 -41 14 -45 -1 -49 -15 -4 -15 -5 -1 -6 28 -2 42 -91 14
-91 -8 0 -15 -4 -15 -10 0 -5 7 -10 15 -10 13 0 15 -8 10 -37 -11 -67 -36
-125 -51 -119 -11 4 -13 0 -8 -18 6 -24 -17 -51 -45 -51 -9 0 -17 -10 -19 -22
-6 -43 -144 -70 -219 -43 l-28 10 24 -20 23 -20 -816 0 c-719 0 -816 -2 -816
-15 0 -13 281 -15 2470 -15 2189 0 2470 2 2470 15 0 13 -63 15 -505 15 l-505
0 6 28 c3 15 12 46 20 69 9 24 13 47 9 53 -8 14 -45 13 -45 -1 0 -6 -11 -37
-25 -68 -32 -69 -54 -81 -158 -81 -67 0 -80 3 -83 18 -4 14 -15 17 -67 16 -34
-1 -82 -9 -106 -18 -24 -9 -74 -16 -113 -16 l-70 0 66 70 c36 39 66 75 66 80
0 5 -8 14 -19 19 -14 8 -23 5 -39 -13 -11 -13 -27 -28 -35 -32 -17 -10 -57
-86 -57 -109 0 -13 -31 -15 -240 -15 -132 0 -239 3 -239 7 7 45 1 49 -65 42
-38 -3 -80 -15 -101 -28 -48 -28 -136 -29 -190 -1 -27 14 -59 20 -103 20 -55
0 -65 -3 -69 -20 -4 -15 -14 -20 -36 -20 -35 0 -97 20 -97 32 0 11 -43 10 -94
-3 -31 -8 -54 -8 -82 0 -63 18 -69 24 -48 56 l18 27 28 -31 28 -31 238 2 c151
2 236 7 235 13 -2 6 -20 11 -40 13 -38 3 -77 28 -68 42 3 5 31 23 63 41 33 19
51 34 43 37 -17 6 -121 -17 -121 -27 0 -15 -62 -43 -85 -37 -25 6 -26 33 -2
33 24 0 69 36 64 52 -2 9 -13 52 -25 96 -44 177 -52 203 -80 285 -29 85 -29
85 -88 117 -33 17 -76 34 -96 37 -24 4 -38 12 -38 21 0 11 -12 14 -47 12 -27
-1 -110 -1 -185 1 -123 2 -138 4 -147 21 -6 10 -12 79 -15 152 l-4 133 -31 4
-31 3 0 -156z m66 -283 c-11 -11 -16 -12 -16 -4 0 7 5 12 10 12 6 0 11 12 11
28 2 25 2 25 6 3 3 -13 -2 -30 -11 -39z m394 -164 c0 -18 3 -44 5 -58 3 -14
-4 0 -15 30 -10 30 -20 56 -20 58 0 1 7 2 15 2 10 0 15 -10 15 -32z m174 -175
l28 -58 -26 24 c-14 14 -26 20 -26 15 0 -6 18 -27 40 -48 l40 -37 -15 -36 c-8
-19 -15 -37 -15 -38 0 -2 -16 -6 -35 -9 -19 -3 -51 -9 -70 -12 -29 -5 -35 -10
-30 -25 5 -15 1 -19 -19 -19 l-26 0 0 93 c0 50 -2 117 -5 147 -4 45 -2 39 15
-35 11 -49 22 -100 25 -111 4 -20 8 -21 44 -12 l39 10 4 74 c2 41 0 88 -3 104
-10 47 4 36 35 -27z m-172 -156 l-4 -89 -23 22 -22 21 23 57 c13 31 24 63 24
71 0 8 1 12 3 10 2 -2 1 -44 -1 -92z m282 -63 c9 -24 9 -24 -35 -24 -59 0 -42
29 22 39 4 1 10 -6 13 -15z m76 -9 c11 -13 7 -15 -26 -15 -39 1 -39 1 -14 15
14 8 26 14 26 15 1 0 7 -7 14 -15z m-167 -22 c-7 -2 -19 -2 -25 0 -7 3 -2 5
12 5 14 0 19 -2 13 -5z m-289 -58 c18 -14 16 -15 -30 -15 -47 1 -48 1 -24 15
31 18 31 18 54 0z"/>
<path d="M460 1245 c0 -3 24 -53 52 -112 63 -127 131 -205 195 -224 37 -10 48
-10 83 6 43 19 47 18 118 -26 51 -33 41 0 -20 66 -45 48 -61 58 -102 66 -43 8
-60 20 -140 97 -51 49 -103 96 -116 104 -29 18 -70 32 -70 23z"/>
<path d="M3630 1139 c0 -35 -5 -145 -11 -244 l-12 -180 84 -210 84 -210 39 2
c22 2 40 4 42 6 2 1 -21 99 -51 217 -48 190 -53 220 -44 260 16 77 20 77 43 4
18 -55 52 -113 155 -263 128 -185 134 -192 152 -175 10 9 21 25 24 34 5 16
-114 304 -122 296 -2 -2 18 -63 45 -135 27 -72 47 -133 44 -136 -14 -13 -32
-2 -38 23 -5 22 -124 375 -226 675 -19 54 -22 57 -52 57 -30 0 -93 16 -138 35
-16 6 -18 0 -18 -56z"/>
<path d="M3888 1166 c-21 -5 -38 -12 -38 -15 0 -3 30 -89 65 -191 36 -102 63
-171 60 -155 -2 17 -12 98 -20 180 -21 195 -20 193 -67 181z"/>
<path d="M1040 1133 c0 -15 -2 -53 -5 -83 -5 -54 -5 -54 9 -25 17 34 21 121 6
130 -6 4 -10 -6 -10 -22z"/>
<path d="M2390 1056 l0 -46 -82 0 c-74 0 -80 -1 -62 -15 28 -21 194 -21 194 0
0 8 -4 15 -9 15 -6 0 -11 19 -13 42 -4 59 -28 63 -28 4z"/>
<path d="M4990 1016 c0 -7 8 -28 17 -47 14 -26 18 -30 21 -16 6 28 -6 64 -23
71 -9 3 -15 0 -15 -8z"/>
<path d="M5089 1028 c-12 -42 6 -76 33 -65 8 4 5 8 -9 12 -18 6 -22 12 -17 31
3 13 3 24 0 24 -3 0 -6 -1 -7 -2z"/>
<path d="M4920 929 c0 -6 9 -22 20 -36 11 -14 20 -32 20 -39 0 -8 6 -14 14
-14 8 0 28 -8 45 -17 33 -19 51 -12 31 12 -7 8 -28 15 -46 15 -30 0 -34 3 -34
26 0 14 -5 34 -10 45 -11 20 -40 26 -40 8z"/>
<path d="M343 905 c1 -11 -4 -25 -13 -32 -8 -7 -10 -13 -4 -13 20 0 32 24 23
45 l-9 20 3 -20z"/>
<path d="M412 908 c-7 -7 -12 -26 -12 -42 l1 -31 19 35 c11 19 19 38 20 43 0
11 -15 8 -28 -5z"/>
<path d="M460 821 c-5 -11 -10 -30 -10 -43 l0 -23 13 21 c6 12 18 31 25 43 11
18 10 21 -2 21 -9 0 -20 -9 -26 -19z"/>
<path d="M517 768 c-9 -5 -17 -20 -17 -34 l0 -25 30 23 c17 12 30 25 30 29 0
13 -26 17 -43 7z"/>
<path d="M5250 756 c0 -14 10 -30 25 -40 15 -10 25 -12 25 -5 0 6 -9 13 -20
16 -15 4 -18 11 -14 29 4 15 2 24 -5 24 -6 0 -11 -11 -11 -24z"/>
<path d="M393 763 c-14 -5 -18 -33 -5 -33 4 0 18 9 32 20 23 18 23 20 5 19
-11 0 -26 -3 -32 -6z"/>
<path d="M4774 719 c-8 -13 21 -39 42 -39 7 0 17 -8 23 -17 15 -28 20 -11 7
27 -8 27 -17 36 -38 38 -14 2 -29 -2 -34 -9z"/>
<path d="M200 685 c0 -16 -6 -25 -15 -25 -8 0 -15 -5 -15 -10 0 -7 6 -7 20 0
17 9 30 60 15 60 -3 0 -5 -11 -5 -25z"/>
<path d="M425 689 c-11 -17 3 -23 28 -11 12 6 29 13 37 15 8 3 -2 6 -22 6 -20
1 -40 -4 -43 -10z"/>
<path d="M5198 650 c44 -27 66 -27 52 0 -8 15 -21 20 -48 20 l-37 0 33 -20z"/>
<path d="M567 653 c-4 -3 -7 -14 -7 -24 0 -15 4 -16 30 -6 17 6 30 17 30 24 0
13 -41 18 -53 6z"/>
<path d="M4990 619 c0 -7 11 -22 25 -35 l25 -23 0 28 c0 17 -7 31 -16 35 -23
9 -34 7 -34 -5z"/>
<path d="M215 599 c-13 -19 4 -22 37 -6 l33 17 -32 0 c-17 0 -35 -5 -38 -11z"/>
<path d="M5090 595 c0 -2 18 -14 40 -25 29 -15 40 -17 40 -7 0 21 -22 37 -52
37 -15 0 -28 -2 -28 -5z"/>
<path d="M400 565 c-6 -8 -10 -22 -8 -33 3 -17 5 -16 25 9 18 21 20 28 9 32
-8 3 -20 0 -26 -8z"/>
<path d="M283 535 c-9 -26 3 -27 38 -6 l34 21 -33 0 c-20 0 -35 -6 -39 -15z"/>
<path d="M4989 503 c-13 -16 -12 -17 4 -4 9 7 17 15 17 17 0 8 -8 3 -21 -13z"/>
<path d="M4934 448 l-29 -33 33 29 c17 17 32 31 32 33 0 8 -8 1 -36 -29z"/>
<path d="M5118 463 c-2 -5 -3 -25 -3 -45 2 -37 46 -110 59 -97 12 11 -6 40
-30 49 -22 9 -23 11 -10 42 13 33 12 58 -4 58 -5 0 -10 -3 -12 -7z"/>
<path d="M470 425 c19 -19 36 -35 39 -35 3 0 -10 16 -29 35 -19 19 -36 35 -39
35 -3 0 10 -16 29 -35z"/>
<path d="M5226 434 c-4 -9 -4 -19 -1 -22 2 -3 7 3 11 12 4 9 4 19 1 22 -2 3
-7 -3 -11 -12z"/>
<path d="M304 426 c-3 -8 0 -24 6 -37 11 -19 9 -24 -16 -44 -16 -13 -23 -24
-17 -28 16 -10 47 43 49 81 1 35 -12 53 -22 28z"/>
<path d="M5005 420 c-3 -6 -3 -19 0 -30 3 -11 2 -27 -3 -36 -6 -11 -1 -24 20
-46 29 -31 46 -32 34 -2 -3 9 -15 18 -26 21 -21 6 -27 28 -10 38 13 8 13 52 1
60 -5 3 -12 1 -16 -5z"/>
<path d="M222 403 c1 -10 -2 -25 -7 -33 -7 -13 -6 -13 7 -2 9 7 14 21 11 32
-7 25 -15 26 -11 3z"/>
<path d="M400 376 c0 -14 5 -28 10 -31 16 -10 12 -22 -10 -28 -13 -3 -20 -14
-20 -29 0 -22 1 -22 25 7 13 17 22 36 20 43 -3 8 -5 25 -5 38 0 13 -4 24 -10
24 -5 0 -10 -11 -10 -24z"/>
<path d="M5230 385 c7 -9 15 -13 17 -11 7 7 -7 26 -19 26 -6 0 -6 -6 2 -15z"/>
<path d="M4854 358 l-19 -23 23 19 c12 11 22 21 22 23 0 8 -8 2 -26 -19z"/>
<path d="M4890 342 c0 -21 -6 -44 -12 -51 -11 -10 -10 -11 3 -6 22 8 41 53 34
76 -11 32 -25 21 -25 -19z"/>
<path d="M500 337 c0 -13 6 -31 13 -41 11 -15 12 -12 9 23 -4 43 -22 57 -22
18z"/>
<path d="M540 346 c0 -2 8 -10 18 -17 15 -13 16 -12 3 4 -13 16 -21 21 -21 13z"/>
<path d="M4804 298 l-19 -23 23 19 c12 11 22 21 22 23 0 8 -8 2 -26 -19z"/>
<path d="M4769 253 c-13 -16 -12 -17 4 -4 16 13 21 21 13 21 -2 0 -10 -8 -17
-17z"/>
<path d="M616 242 c-3 -5 1 -9 9 -9 8 0 12 4 9 9 -3 4 -7 8 -9 8 -2 0 -6 -4
-9 -8z"/>
</g>
</svg>
