<?xml version="1.0" encoding="utf-8"?>
<!-- Generator: Adobe Illustrator 15.0.0, SVG Export Plug-In . SVG Version: 6.00 Build 0)  -->
<!DOCTYPE svg PUBLIC "-//W3C//DTD SVG 1.1//EN" "http://www.w3.org/Graphics/SVG/1.1/DTD/svg11.dtd">
<svg version="1.1" id="Layer_1" xmlns="http://www.w3.org/2000/svg" xmlns:xlink="http://www.w3.org/1999/xlink" x="0px" y="0px"
	 width="78.5px" height="72px" viewBox="0 0 78.5 72" enable-background="new 0 0 78.5 72" xml:space="preserve">
<g id="Layer_1_2_">
	<g>
		<path fill="#042539" d="M40.698,0.238c0.766,0,1.531,0,2.295,0C53.927,0.707,61.358,5.015,67.3,10.429
			c2.965,2.702,5.342,6.072,7.285,9.872c1.949,3.802,3.281,8.247,3.678,13.375c0,1.571,0,3.149,0,4.717
			c-0.9,10.102-5.014,17.41-10.639,22.926c-5.617,5.521-13.063,9.559-23.354,10.443c-1.605,0-3.207,0-4.813,0
			c-7.852-0.619-14.08-3.219-19.055-6.83c-1.674-1.213-3.324-2.498-4.662-3.934c-5.473-5.861-9.883-13.127-10.354-23.854
			c0-0.753,0-1.502,0-2.253c0.029-0.009,0.045-0.031,0.037-0.075c0.57-10.792,4.898-18.434,10.68-24.102
			C21.933,4.998,29.716,0.851,40.698,0.238z M33.267,2.455c-7.098,1.754-12.35,5.258-16.723,9.549
			c-2.959,2.899-5.301,6.275-7.07,10.337c-1.666,3.819-3.107,8.938-2.84,14.446c0.133,2.813,0.428,5.287,1.018,7.619
			c0.582,2.283,1.379,4.354,2.334,6.363c1.83,3.846,4.371,7.391,7.357,10.084c6.15,5.549,13.645,9.766,25.281,9.766
			c5.439,0,10.303-1.484,14.252-3.291c4.072-1.861,7.363-4.363,10.273-7.225c2.93-2.875,5.275-6.371,7.072-10.336
			c1.844-4.088,2.879-8.715,2.879-14.484c0-5.336-1.547-10.326-3.355-13.982c-3.83-7.766-9.723-13.508-17.893-17.023
			c-3.857-1.66-9.156-3.087-14.76-2.826C38.259,1.585,35.673,1.863,33.267,2.455z"/>
		<path fill="#042539" d="M43.685,4.887c0.508,0.04,1.236-0.138,1.207,0.429c-0.369,0.028-0.896-0.095-1.061,0.143
			c0.031,0.928-0.027,1.761-0.072,2.609c-0.146,0.016-0.131,0.184-0.293,0.18c-0.055-0.065-0.111-0.125-0.178-0.18
			c0-0.771,0.111-1.674,0.07-2.68c-0.008-0.074-0.1-0.069-0.107-0.145c-0.672,0.049-1.938-0.218-1.566,0.537
			c0.801-0.266,1.299,0.2,1.385,0.858c-0.105,0.646-0.199,1.304-0.838,1.427c0.016-0.059-0.027-0.064-0.07-0.068
			c0.006-0.41,0.301-0.537,0.469-0.789c0.063-0.371-0.082-0.541-0.104-0.822c-0.146-0.289-0.668-0.333-0.84-0.036
			c-0.059,0.658,0.137,1.565-0.146,2.001c-0.203,0.038-0.166-0.166-0.324-0.178c0-0.166,0-0.336,0-0.504
			c-0.398-0.141-0.678,0.111-1.133-0.071c-0.398-0.233-0.49-0.94-0.291-1.464c0.16-0.167,0.434-0.223,0.543-0.432
			c0.244,0,0.488,0,0.73,0c0.063-0.065,0.027-0.235,0.037-0.355c-0.576-0.087-1.326-0.04-1.82,0.072
			c-0.096-0.012-0.027,0.139-0.148,0.107c0.092,0.916,0.238,1.77,0.293,2.717c-0.113,0.015-0.145,0.119-0.219,0.181
			c-0.164,0-0.145-0.169-0.291-0.181c-0.029-0.886-0.139-1.701-0.184-2.574c-0.055-0.223-0.432-0.125-0.689-0.143
			c-0.129,0.315,0.115,0.577,0.041,0.963c0.15,0.269,0.271,0.865,0.105,1.217C38.06,7.685,37.985,7.72,37.97,7.814
			c-0.486-0.248-0.896-0.574-0.914-1.288c0.152-0.114,0.246-0.284,0.479-0.319c0.029-0.236-0.031-0.381-0.111-0.504
			c-0.385-0.041-0.648,0.029-0.762,0.25c0.18,0.094,0.018,0.537,0.213,0.611c0.064,0.355,0.002,0.83,0.182,1.07
			c-0.059,0.441,0.277,0.953-0.182,1.076c-0.623-0.604-0.326-2.11-0.84-2.827c-0.166,0.048-0.32,0.11-0.398,0.251
			c0.189,0.888,0.432,1.726,0.549,2.683c-0.084,0.037-0.168,0.069-0.184,0.179c-0.135,0-0.1-0.168-0.293-0.109
			c-0.344-0.809-0.252-2.039-0.691-2.75c-0.242-0.051-0.316,0.064-0.434,0.143c0.088,0.975,0.449,1.676,0.473,2.717
			c-0.063-0.015-0.064,0.029-0.07,0.071c-0.316,0-0.441-0.186-0.4-0.538c-0.438,0.118-0.604,0.508-1.131,0.538
			c-0.086-0.012-0.045,0.104-0.105,0.107c-0.434-0.019-0.684-0.218-0.842-0.501c0-0.18,0-0.358,0-0.537
			C32.442,8,32.265,7.971,32.146,7.885c-0.205-0.917,0.57-0.874,1.02-1.144c-0.248-0.096-0.621,0.004-0.762,0.144
			c-0.424-0.025-0.646,0.149-0.91,0.284c-0.053,0.289,0.117,0.365,0.072,0.645c0.242,0.336,0.377,0.777,0.473,1.252
			c0.121,0.285,0.285,0.53,0.291,0.932c-0.061-0.016-0.066,0.028-0.072,0.071c-0.314,0.087-0.336-0.239-0.471-0.466
			c-0.129-0.206-0.283-0.521-0.293-0.893c-0.252-0.397-0.338-0.959-0.582-1.359c-0.229,0.014-0.371,0.111-0.477,0.248
			c0.109,0.236,0.125,0.482,0.221,0.715c0.031,0.077,0.154,0.139,0.182,0.215c0.086,0.219,0.096,0.471,0.188,0.68
			c0.145,0.334,0.439,0.621,0.361,1.072c-0.063-0.012-0.068,0.029-0.07,0.072c-0.43,0.021-0.396-0.406-0.584-0.607
			c-0.533,0.229-0.488,1.02-1.021,1.252c0-0.144-0.172-0.121-0.219-0.215c0.045-0.353,0.301-0.492,0.402-0.787
			c0.021-0.121-0.148-0.045-0.109-0.18c-0.541-0.021-0.564-0.543-0.84-0.822c0.031-0.313-0.174-0.396-0.215-0.645
			c-0.215,0.031-0.457,0.032-0.547,0.182c-0.133-0.048-0.221-0.14-0.285-0.252c0.092-0.012,0.129-0.086,0.104-0.216
			c0.543-0.12,0.867-0.46,1.422-0.569c0.074-0.24-0.268-0.201-0.477-0.322c-0.145-0.088-0.178-0.258-0.322-0.286
			c-0.234-0.043-0.396,0.062-0.584,0.18c-0.176-0.067-0.381-0.104-0.51-0.216c0.104-0.212,0.389-0.241,0.51-0.43
			c0.789-0.055,0.98,0.475,1.645,0.539c0.025,0.102,0.123,0.14,0.18,0.215c0.326,0.035,0.553-0.028,0.688-0.178
			c-0.164-0.252-0.563-0.283-0.688-0.574c-0.322-0.04-0.486,0.072-0.656,0.181c-0.891-0.108-0.107-0.868,0.619-0.646
			c0.439,0.302,0.939,0.535,1.389,0.824c1.131-0.359,2.227-0.75,3.461-1.002c-0.121-0.121-0.205-0.357-0.4-0.466
			c-0.035-0.019-0.117,0.022-0.146,0c-0.1-0.073-0.133-0.226-0.361-0.25c-0.279-0.032-0.875,0.278-0.836-0.289
			c0.984-0.562,1.652,0.407,2.328,0.826c0.346,0.039,0.521-0.082,0.689-0.216c-0.004-0.297-0.168-0.529-0.109-0.822
			c0.016-0.052,0.146-0.141,0.186-0.25c0.092-0.266,0.223-0.357,0.508-0.429c0.137,0.128,0.318,0.034,0.473,0.071
			c0.066,0.016,0.363,0.109,0.512,0.181c0.023,0.013,0.07,0.149,0.145,0.179c0.133,0.055,0.133,0.074,0.254,0.143
			c0.063,0.035,0.162,0.02,0.188,0.039c0.059,0.043,0.072,0.168,0.141,0.213c0.174,0.115,0.467,0.133,0.547,0.357
			C39.454,5,40.165,4.985,40.757,4.852c-0.055-0.315-0.188-0.601-0.104-0.894c0.148-0.539,0.912-0.645,1.533-0.467
			c0.074,0.178,0.242,0.262,0.467,0.287C42.927,4.201,43.376,4.48,43.685,4.887z M42.704,4.458
			c-0.367-0.342-0.701-0.699-1.492-0.573c-0.189,0.301-0.113,0.804,0.109,1.001c0.557,0,1.119,0,1.672,0
			C43.052,4.693,42.841,4.583,42.704,4.458z M36.981,4.316c-0.156,0-0.314,0-0.471,0c-0.273,0.115-0.227,0.54-0.219,0.928
			c0.561,0.168,1.35,0.008,1.787-0.178C37.815,4.717,37.364,4.553,36.981,4.316z M40.333,6.174
			c-0.023,0.331-0.244,0.469-0.182,0.895c0.121,0.073,0.25,0.14,0.293,0.286c0.35,0.064,0.354-0.204,0.654-0.18
			c0.105-0.242,0.131-0.561,0.109-0.928C41.069,6.026,40.563,6.012,40.333,6.174z M33.267,7.248
			c-0.063,0.17-0.336,0.144-0.545,0.179c0.018,0.093-0.018,0.129-0.107,0.108c0.033,0.084,0.094,0.146,0.182,0.176
			c0.01-0.041-0.008-0.102,0.033-0.107c0.361,0.02,0.908-0.279,0.84,0.288c-0.172,0.046-0.234,0.196-0.473,0.177
			c-0.014,0.215-0.178,0.279-0.111,0.572c0.188,0,0.363,0,0.545,0c0.037-0.083,0.105-0.137,0.146-0.212
			c0.369-0.073,0.461-0.406,0.621-0.683c-0.078-0.306-0.199-0.567-0.186-0.963c-0.201,0.041-0.072-0.24-0.105-0.361
			c-0.123,0-0.244,0-0.365,0C33.61,6.74,33.929,7.333,33.267,7.248z M29.224,8.068c0.023,0.58,0.303,0.92,0.547,1.288
			c0.379,0.04,0.561-0.114,0.762-0.25c-0.291-0.331-0.35-0.899-0.58-1.287C29.567,7.766,29.417,7.941,29.224,8.068z"/>
		<path fill="#042539" d="M49.409,4.816c0.107,0.754-0.893,0.577-0.766,0.035C48.712,4.561,49.259,4.5,49.409,4.816z"/>
		<path fill="#042539" d="M47.04,5.244c1.01-0.06,1.564,0.323,2.479,0.36c0.168,0.106,0.369,0.183,0.652,0.179
			c0.434,0.158,0.861,0.32,1.42,0.357c0.242,0.202,0.725,0.175,0.949,0.393c0.59,0.049,0.965,0.313,1.49,0.43
			c0.574,0.186,0.953,0.544,1.607,0.643c-0.008,0.163,0.227,0.085,0.254,0.217c0.814,0.187,1.33,0.672,2.109,0.894
			c0.301,0.255,0.729,0.382,1.021,0.642c0,0.12,0,0.24,0,0.36c-0.385,0.042-0.48-0.195-0.766-0.25
			c-0.395,0.187-0.361,0.786-0.73,1.002c-0.123,0.614-0.574,0.915-0.762,1.465c-0.207,0.038-0.303-0.04-0.363-0.142
			c0.076-0.282,0.117-0.601,0.363-0.717c0.086-0.344,0.305-0.56,0.467-0.824c-0.156-0.225-0.51-0.258-0.729-0.428
			c-0.053,0.258-0.145,0.479-0.217,0.717c-0.279,0.039-0.445-0.043-0.656-0.071c-0.205-0.402-0.129-1.078,0.182-1.287
			c0.537-0.082,0.604,0.294,1.059,0.286c0.057,0.208,0.355,0.184,0.439,0.357c0.205-0.16,0.4-0.319,0.4-0.682
			c-0.506-0.398-1.17-0.643-1.82-0.895c-0.488,0.81-0.859,1.732-1.314,2.576c-0.211,0.021-0.363-0.021-0.355-0.215
			c0.354-0.877,0.865-1.6,1.123-2.572c-0.273-0.063-0.34-0.334-0.689-0.321c-0.375,0.799-0.754,1.597-0.986,2.536
			c-0.094,0.072-0.193,0.142-0.396,0.109c0.016-0.062-0.027-0.068-0.07-0.074c-0.02-0.313,0.1-0.494,0.178-0.713
			c-0.121,0.049-0.402,0.1-0.58,0.072C52.7,9.631,52.8,9.585,52.694,9.541c-0.092-0.035-0.217,0.019-0.258,0
			c-0.057-0.025-0.059-0.146-0.107-0.178c-0.039-0.029-0.137,0.021-0.184,0c-0.139-0.066-0.34-0.461-0.359-0.574
			c-0.043-0.181,0.025-0.371,0-0.572c-0.09-0.086-0.074,0.055-0.186,0.037c-0.074-0.162-0.318-0.162-0.291-0.43
			c-0.148,0.145-0.402,0.174-0.58,0.286c0.236,0.411,0.307,0.989,0.58,1.361c-0.059,0.099-0.195,0.116-0.291,0.179
			c-0.006-0.16-0.244-0.097-0.293-0.216c-0.219-0.81-0.615-1.44-0.729-2.358c0.141-0.209,0.354-0.045,0.543,0
			c0,0.131,0,0.26,0,0.394c0.48,0.392,0.709-0.394,0.766-0.859c-0.264-0.301-0.93-0.208-1.242-0.464
			c-0.271,0.201-0.354,0.58-0.361,1.038c-0.223,0.603-0.336,1.312-0.58,1.896c-0.088,0-0.17,0-0.254,0
			c-0.057-0.567,0.092-0.936,0.184-1.359c-0.107-0.225-0.266-0.1-0.51-0.18c-0.105-0.035-0.104-0.043-0.254-0.105
			c-0.266-0.111-0.127-0.323-0.512-0.18c-0.18,0.242,0.133,0.541,0.326,0.645c0.063,0.316,0.305,0.465,0.471,0.678
			C48.63,8.772,48.405,8.701,48.47,8.9c-0.096,0-0.197,0-0.291,0c-0.514-0.568-0.842-1.318-1.422-1.822
			c-0.021-0.246,0-0.453,0.217-0.468c0.111,0.082,0.238,0.147,0.291,0.287c0.703,0.104,0.674-0.507,0.729-1.037
			c-0.133-0.157-0.428-0.153-0.729-0.144C47.202,5.541,46.97,5.541,47.04,5.244z M48.786,5.889C48.317,5.924,48.38,6.41,48.28,6.891
			c0.344,0.093,0.592,0.276,0.951,0.356c0.02-0.404,0.35-0.924,0.07-1.287C49.056,6.035,48.923,5.88,48.786,5.889z M51.487,7.5
			c0.02,0.287,0.35,0.275,0.469,0.465c-0.072,0.039-0.164,0.076-0.176,0.178c0.104-0.001,0.299-0.198,0.471-0.25
			c-0.244-0.23-0.262-0.954,0-1.18c-0.223,0.022-0.385-0.006-0.471-0.107C51.642,6.865,51.644,7.26,51.487,7.5z M53.274,7.355
			c0.023-0.423-0.979-0.73-0.84,0.071C52.608,7.819,53.249,7.729,53.274,7.355z M53.671,7.572c-0.381,0.375-0.809,0.705-1.42,0.857
			c0,0.129,0,0.261,0,0.393c0.17,0.127,0.332,0.268,0.545,0.357c1.24,0.204,0.99-1.053,1.42-1.645
			c-0.131-0.146-0.381-0.175-0.545-0.289C53.671,7.355,53.671,7.462,53.671,7.572z"/>
		<path fill="#042539" d="M25.724,9.25c0.133,0,0.096,0.168,0.289,0.106c0.059,0.554-0.559,0.453-0.764,0.753
			c-0.021,0.334,0.086,0.537,0.291,0.643c0.076,0.248,0.148,0.496,0.361,0.611c0.127,0.483,0.506,0.721,0.656,1.178
			c0.014,0.184-0.152,0.183-0.219,0.285c-0.393,0-0.301-0.466-0.617-0.535c-0.27,0.238-0.578,0.431-0.873,0.644
			c-0.732,0.187-1.479-0.052-1.676-0.608c0.094-0.427,0.525-0.531,0.764-0.822c-0.035-0.115-0.127-0.186-0.146-0.321
			c-0.455-0.085-0.594,0.338-0.875,0.501c-0.188,0.109-0.287,0.171-0.398,0.359c0.051,0.058,0.094,0.121,0.182,0.141
			c0.258,0.915,1.211,1.148,1.313,2.216c-0.064-0.012-0.066,0.03-0.072,0.073c-0.184,0.023-0.291-0.021-0.396-0.073
			c-0.08-0.297-0.232-0.509-0.477-0.643c-0.189-0.505-0.635-0.96-0.986-1.359c-0.254,0.031-0.279,0.29-0.504,0.356
			c0,0.072,0,0.143,0,0.215c0.578,0.601,1.09,1.267,1.605,1.93c0,0.072,0,0.145,0,0.215c-0.105,0.059-0.168,0.15-0.367,0.108
			c-0.285-0.454-0.588-0.901-1.055-1.179c-0.354,0.252-0.658,0.543-0.84,0.967c0.109,0.508,0.703,0.546,1.313,0.57
			c-0.031,0.112,0.098,0.074,0.107,0.143c0.016,0.193-0.189,0.165-0.219,0.32c-0.195,0-0.387,0-0.582,0
			c-0.092-0.086-0.225-0.137-0.434-0.106c-0.262-0.209-0.529-0.412-0.658-0.75c-0.037-0.896,0.652-1.084,1.025-1.575
			c-0.092-0.213-0.201-0.4-0.514-0.392c-0.52,0.54-1.117,1-1.563,1.606c0.27,0.316,0.805,0.795,0.471,1.359
			c-0.021,0.1,0.072,0.072,0.072,0.146c0.572,0,1.174-0.032,1.639,0.07c-0.029,0.112,0.094,0.074,0.111,0.143
			c0.053,0.16-0.125,0.093-0.111,0.214c-0.984-0.043-2.15,0.091-3.02-0.071c0-0.097,0-0.189,0-0.286
			c0.494-0.006,0.736-0.251,0.836-0.644c-0.104-0.199-0.172-0.426-0.438-0.467c-0.391,0.281-0.678,0.668-0.943,1.074
			c0.648,0.598,1.293,1.205,2.072,1.682c0,0.119,0,0.238,0,0.359c-0.799,0.101-0.77-0.604-1.35-0.718
			c-0.252-0.429-0.752-0.619-1.059-1c-0.086,0.188-0.271,0.284-0.365,0.464c0.182,0.279,0.428,0.49,0.768,0.61
			c0.314,0.479,0.877,0.707,1.24,1.144c0,0.084,0,0.168,0,0.25c-0.107,0.047-0.221,0.098-0.404,0.07
			c-0.314-0.32-0.557-0.715-1.018-0.893c-0.26,0.067-0.275,0.377-0.479,0.5c0.121,0.418,0.68,0.406,0.656,0.965
			c-0.303,0.193-0.563,0.425-1.131,0.357c-0.043-0.176-0.316-0.117-0.471-0.18c-0.111-0.293-0.088-0.705,0.105-0.895
			c-0.174-0.226-0.271-0.457-0.582-0.285c-0.059,0.303-0.291,0.428-0.365,0.714c-0.133,0-0.27,0-0.4,0
			c0.008-0.664,0.51-0.836,0.658-1.356c0.555-0.059,0.721,0.271,1.059,0.428c0.215-0.144,0.277-0.442,0.471-0.608
			c-0.123-0.166-0.215-0.36-0.471-0.396c-0.109,0.025-0.133,0.131-0.219,0.183c-0.152,0.04-0.143-0.079-0.252-0.074
			c-0.018-0.345,0.152-0.515,0.354-0.644c0.195-0.555,0.762-0.737,0.951-1.289c0.891-0.819,1.611-1.805,2.553-2.574
			c-0.262-0.337-0.916-0.521-0.838-1.109c0.018-0.131,0.207-0.201,0.184-0.428c0.555-0.413,1.881-0.373,2.367,0.072
			c0.348-0.283,0.809-0.449,1.061-0.823c0.318-0.026,0.479-0.222,0.615-0.429c0.287-0.037,0.475-0.178,0.584-0.394
			c0.049,0,0.098,0,0.145,0C24.815,9.742,25.333,9.554,25.724,9.25z M24.228,10.787c-0.063,0.293,0.299,0.438,0.258,0.752
			c-0.047,0.395-0.578,0.324-0.656,0.787c0.02,0.137,0.205,0.109,0.221,0.25c0.613,0.09,1.209-0.396,1.273-0.822
			c0.094-0.559-0.449-0.688-0.438-1.107c-0.076,0.006-0.109-0.029-0.105-0.107C24.528,10.49,24.272,10.601,24.228,10.787z
			 M20.552,11.824c-0.299-0.074-0.205,0.227-0.473,0.18c-0.051,0.226,0.068,0.285,0.068,0.466c0.25,0.032,0.354,0.196,0.549,0.286
			c0.359-0.203,0.703-0.43,0.986-0.715C21.423,11.892,20.856,11.582,20.552,11.824z"/>
		<path fill="#042539" d="M40.847,9.644c4.334-0.202,8.264,0.739,11.404,2.038c6.35,2.629,10.807,6.976,13.809,12.836
			c1.498,2.927,2.527,6.478,2.693,10.551c0.18,4.315-0.721,8.045-2.039,11.157s-3.184,5.758-5.314,7.975
			c-4.205,4.365-10.303,7.887-18.51,8.23c-4.338,0.182-8.217-0.691-11.369-2.002c-3.186-1.324-5.891-3.076-8.129-5.229
			c-4.553-4.371-8.02-9.854-8.412-18.127c-0.205-4.309,0.738-8.103,2.037-11.158c2.621-6.162,7.018-10.67,13.014-13.627
			c1.453-0.717,3.107-1.326,4.916-1.789C36.8,10.031,38.712,9.744,40.847,9.644z M30.46,13.115
			c-5.756,2.838-10.109,7.143-12.645,13.125c-1.203,2.852-2.168,6.694-1.965,10.835c0.186,3.873,1.186,7.287,2.658,10.152
			c2.893,5.648,7.277,9.918,13.408,12.375c3.064,1.229,6.727,2.123,10.973,1.932c3.967-0.178,7.418-1.127,10.348-2.572
			c5.789-2.857,10.057-7.127,12.645-13.127c1.289-2.984,2.148-6.609,1.971-10.763c-0.352-7.996-3.797-13.391-8.125-17.561
			c-2.16-2.076-4.771-3.753-7.871-5.043c-3.006-1.248-6.916-2.123-11.043-1.932C36.714,10.73,33.358,11.682,30.46,13.115z"/>
		<path fill="#042539" d="M61.323,11.003c0.275,0.031,0.428,0.176,0.545,0.359c0.279-0.004,0.326,0.225,0.471,0.355
			c0.064,0,0.123,0,0.189,0c0.602,0.613,1.363,1.066,1.893,1.752c0.061,0,0.121,0,0.184,0c0.404,0.555,0.893,1.031,1.42,1.465
			c0,0.049,0,0.098,0,0.145c0.273,0.207,0.461,0.504,0.764,0.679c0,0.048,0,0.095,0,0.143c1.041,1.22,2.074,2.446,2.914,3.863
			c-0.334,0.606-0.623-0.28-0.873-0.427c-0.207,0.212-0.557,0.289-0.729,0.535c-0.234-0.016-0.539,0.045-0.656-0.071
			c-0.16,0.059-0.191,0.239-0.182,0.465c-0.332,0.259-0.023,1.142-0.691,1.074c0.012-0.062-0.027-0.068-0.072-0.072
			c-0.012-1.044,0.578-1.508,0.545-2.576c0.125-0.144,0.463-0.144,0.58,0c0.02,0.257-0.063,0.612,0.109,0.718
			c0.479,0.019,0.578-0.34,0.912-0.467c-0.004-0.078-0.092-0.078-0.184-0.07c-0.063-0.472-0.416-0.666-0.613-1.004
			c-0.24-0.074-0.279,0.194-0.404,0.287c-0.031,0.023-0.111-0.02-0.146,0c-0.066,0.038-0.086,0.139-0.145,0.18
			c-0.035,0.021-0.113-0.02-0.146,0c-0.266,0.136-0.449,0.463-0.729,0.645c-0.027,0.014-0.09-0.021-0.107,0
			c-0.197,0.146-0.334,0.355-0.51,0.465c0.066,0.205-0.063,0.278-0.111,0.356c-0.055,0.084-0.09,0.302-0.184,0.358
			c-0.111,0.064-0.404,0.084-0.512,0.069c-0.299-0.043-0.396-0.335-0.613-0.428c-0.033-0.571-0.52-1.231-0.145-1.752
			c0.203-0.022,0.188,0.168,0.324,0.215c-0.021,0.451,0.066,0.791,0.219,1.075c0.098-0.049,0.086-0.202,0.145-0.289
			c0.205,0,0.412,0,0.621,0c0.1-0.161,0.354-0.172,0.322-0.465c-0.248-0.267-0.43-0.598-0.361-1.178
			c0.379-0.369,0.803-0.691,1.203-1.039c0.02-0.199-0.141-0.215-0.217-0.32c-0.459,0.458-1.064,0.765-1.457,1.287
			c-0.453,0.08-0.529,0.533-0.949,0.644c-0.02-0.153-0.207-0.128-0.184-0.323c0.402-0.447,0.891-0.82,1.387-1.178
			c0.012-0.523-0.342-0.691-0.58-0.966c-0.145,0.321-0.063,0.874-0.51,0.894c-0.244-0.024-0.336-0.197-0.512-0.287
			c-0.033-0.461,0.021-0.836,0.105-1.18c0.971-0.563,1.227,0.848,2.041,1c0.104-0.102,0.195-0.217,0.328-0.283
			c-0.428-0.586-0.939-1.082-1.42-1.611c-0.322-0.041-0.537,0.275-0.768,0.502c-0.531,0.52-1.113,1.082-1.602,1.572
			c-0.1,0-0.197,0-0.293,0c-0.063-0.215-0.084-0.291,0-0.498c0.047-0.031,0.096-0.047,0.182-0.035
			c0.615-0.666,1.279-1.275,1.934-1.896c-0.373-0.457-0.818-0.842-1.277-1.216c-0.113,0.042-0.094,0.216-0.293,0.181
			c-0.066,0.051-0.006,0.229-0.146,0.215c0.262,0.116,0.484,0.264,0.656,0.465c0.133,1.283-0.713,1.61-1.602,1.895
			c-0.086-0.135-0.242-0.193-0.293-0.357c0.635-0.213,1.27-0.422,1.531-1c-0.078-0.383-0.285-0.647-0.656-0.574
			c-0.164,0.035-0.51,0.395-0.689,0.609c-0.02,0.028,0.023,0.112,0,0.143c-0.141,0.222-0.525,0.313-0.471,0.535
			c-0.123,0-0.242,0-0.363,0c-0.053-0.431,0.182-0.584,0.363-0.787c-0.025-0.081-0.205-0.014-0.291-0.033
			c-0.338-0.137-0.547-0.396-0.73-0.682c-0.09-0.789,0.441-0.973,0.877-1.252c0.576-0.02,0.902,0.209,1.201,0.465
			c0,0.084,0,0.168,0,0.25c0.168-0.073,0.285-0.193,0.365-0.356c-0.252-0.394-0.738-0.565-1.02-0.93
			C61.194,11.113,61.267,11.065,61.323,11.003z M61.581,13.005c0.082-0.28-0.102-0.652-0.363-0.715
			c-0.541-0.133-1.154,0.494-0.84,0.93c0.143,0.043,0.352,0.02,0.363,0.181C61.101,13.403,61.511,13.233,61.581,13.005z
			 M66.86,16.689c-0.363,0.404-1.096,0.449-1.021,1.288c0.104,0.045,0.207,0.082,0.186,0.25c0.188-0.063,0.145,0.097,0.256,0.106
			c0.455-0.187,0.721-0.557,1.166-0.752C67.38,17.158,67.173,16.871,66.86,16.689z M64.714,19.621
			c0.082,0.061,0.197,0.095,0.359,0.072c0-0.048,0-0.093,0-0.144c-0.166-0.027-0.207-0.175-0.359-0.214
			C64.714,19.432,64.714,19.525,64.714,19.621z"/>
		<path fill="#042539" d="M45.581,16.94c0.039-0.157,0.135-0.253,0.254-0.325c0.369-1.199,1.08-2.063,1.859-2.861
			c0.273,0.029,0.578,0.029,0.727,0.18c0.535,0.088,1.063,0.176,1.277,0.573c0,0.347,0.123,0.571,0.072,0.965
			c-0.033,0.116,0.094,0.073,0.109,0.144c0,0.394,0,0.786,0,1.178c-0.188,0.248-0.088,0.773-0.184,1.109
			c0.309,0.247,0.68,0.43,1.166,0.502c0.844-0.945,1.697-1.887,2.916-2.469c0.521,0.321,1.168,0.521,1.564,0.967
			c0.057,0.497-0.105,0.776-0.07,1.251c-0.104,0.091-0.133,0.25-0.107,0.466c-0.158,0.359-0.316,0.717-0.363,1.178
			c-0.205,0.144-0.281,0.412-0.293,0.75c0.316,0.203,0.566,0.473,0.947,0.609c0.299-0.291,0.693-0.471,1.064-0.713
			c0.1-0.068,0.314-0.328,0.436-0.395c0.092-0.049,0.215-0.024,0.328-0.071c0.135-0.062,0.279-0.114,0.439-0.179
			c0.367-0.152,0.697-0.426,1.309-0.393c0.346,0.563,1.063,0.769,1.24,1.5c0.025,0.115-0.123,0.049-0.105,0.144
			c0.02,0.641-0.41,0.838-0.475,1.395c-0.105-0.003-0.084,0.108-0.188,0.108c0.029,0.298-0.152,0.283-0.291,0.464
			c-0.049,0.063-0.02,0.188-0.07,0.255c-0.232,0.29-0.697,0.496-0.652,0.928c0.021,0.238,0.279,0.364,0.363,0.572
			c0.205,0.49,0.748-0.007,1.094-0.145c0.318-0.127,0.674-0.164,0.951-0.248c0.076-0.025,0.121-0.064,0.18-0.11
			c0.133,0,0.268,0,0.404,0c0.107,0.019,0.092-0.097,0.18-0.106c0.205,0,0.414,0,0.617,0c0.082,0.02,0.057-0.068,0.105-0.071
			c0.35-0.042,0.545,0.062,0.729,0.178c0.199,0.582,0.551,1.009,0.84,1.502c0,0.062,0,0.12,0,0.177
			c-0.59,1.2-1.658,1.928-2.662,2.719c0.01,0.396,0.309,0.514,0.324,0.895c0.504-0.035,1.07,0,1.426-0.178
			c0.338,0.049,0.893-0.11,1.061,0.107c0.438-0.047,0.701,0.07,1.092,0.07c0.1,0.059,0.164,0.152,0.365,0.107
			c0.266,0.586,0.463,1.24,0.545,2c-0.252,0.134-0.336,0.433-0.545,0.574c-0.035,0.022-0.117-0.024-0.146,0
			c-0.16,0.113-0.336,0.364-0.615,0.43c-0.1,0.021-0.08,0.058-0.221,0.105c-0.158,0.057-0.201,0.221-0.326,0.287
			c-0.109,0.059-0.277,0.023-0.404,0.07c-0.152,0.058-0.293,0.225-0.475,0.287c-0.223,0.08-0.529,0.021-0.652,0.216
			c0.105,0.325,0.057,0.801,0.225,1.071c1.568,0.021,2.691,0.478,3.752,1.002c0,0.668,0,1.335,0,2
			c-0.459,0.26-1.031,0.398-1.389,0.756c-0.313-0.01-0.576,0.027-0.727,0.176c-0.559,0.166-1.563-0.102-1.861,0.326
			c-0.049,0.154,0.146,0.072,0.111,0.213c-0.213,0.016-0.063,0.389-0.111,0.572c0.027,0.08,0.141,0.076,0.15,0.18
			c0.707,0.074,1.119,0.447,1.746,0.607c-0.02,0.127,0.145,0.098,0.145,0.215c0.076,0,0.15,0,0.223,0
			c0.295,0.365,0.758,0.566,1.057,0.932c0.006,0.824-0.379,1.273-0.473,2c-1.064,0.316-2.83,0.354-3.973,0.074
			c-0.146,0.047-0.211,0.17-0.18,0.391c-0.162,0.145-0.221,0.377-0.293,0.607c0.033,0.121,0.113,0.197,0.293,0.18
			c-0.043,0.131,0.133,0.057,0.105,0.18c0.688,0.277,1.018,0.91,1.602,1.287c0.105,0.523,0.746,0.754,0.656,1.289
			c-0.023,0.158-0.289,0.316-0.402,0.5c-0.129,0.221-0.156,0.523-0.254,0.68c-0.104,0.184-0.334,0.283-0.4,0.463
			c-0.527,0.033-0.965-0.023-1.42-0.066c-0.115,0.033-0.055-0.115-0.146-0.107c-0.945-0.076-1.518-0.512-2.332-0.713
			c-0.174,0.371-0.594,0.516-0.617,1.035c0.607,0.73,1.229,1.445,1.498,2.504c0.166,0.254,0.314,0.68,0.107,1
			c-0.535,0.238-0.766,0.777-1.277,1.037c-1.344-0.355-2.439-0.941-3.316-1.752c-0.521,0.016-0.691,0.367-0.982,0.607
			c0.438,1.043,0.93,2.039,0.838,3.607c-0.482,0.424-1.164,0.646-1.711,1.004c-0.123,0-0.242,0-0.363,0
			c-0.146-0.035-0.133-0.229-0.363-0.18c-0.658-0.557-1.332-1.105-1.895-1.754c-0.068-0.287-0.246-0.471-0.432-0.645
			c-0.305,0.186-0.82,0.152-0.986,0.469c0.361,1.072,0.213,2.611-0.076,3.648c-0.682,0.236-1.424,0.41-2.184,0.568
			c-0.1-0.059-0.164-0.148-0.361-0.105c-0.695-0.93-1.367-1.879-1.752-3.111c-0.387-0.02-0.734,0-0.986,0.107
			c-0.146,0.365-0.105,0.924-0.184,1.357c-0.355,0.799-0.504,1.787-1.166,2.289c-0.594,0-1.189,0-1.781,0
			c-0.031-0.162-0.178-0.209-0.295-0.285c-0.234-0.541-0.385-1.172-0.652-1.682c0.014-0.32-0.129-0.494-0.072-0.855
			c0.031-0.115-0.098-0.076-0.109-0.143c0-0.217,0-0.432,0-0.646c-0.033-0.049-0.096-0.07-0.105-0.145
			c-0.447,0.072-0.645-0.104-1.02-0.104c-0.193,0.422-0.463,0.766-0.545,1.289c-0.23,0.18-0.373,0.447-0.475,0.748
			c-0.43,0.344-0.748,0.793-1.131,1.18c-0.293,0.039-0.387-0.123-0.693-0.068c-0.316-0.211-0.832-0.232-1.205-0.393
			c-0.176-0.34-0.209-0.818-0.398-1.146c0-0.617,0-1.236,0-1.859c-0.027-0.117,0.094-0.076,0.109-0.143
			c0.012-0.217-0.055-0.51,0.109-0.574c-0.197-0.318-0.678-0.359-1.098-0.465c-0.578,0.803-1.313,1.457-2.039,2.107
			c-0.33,0.021-0.479,0.225-0.691,0.359c-0.512,0.025-0.629-0.336-1.094-0.359c-0.158-0.246-0.467-0.354-0.764-0.463
			c-0.178-1.27,0.326-2.76,0.949-3.686c-0.248-0.34-0.615-0.564-0.986-0.787c-0.979,0.639-1.881,1.352-3.24,1.607
			c-0.135-0.037-0.057,0.139-0.182,0.105c-0.607-0.217-0.846-0.791-1.354-1.107c-0.02-0.32,0.057-0.461,0.107-0.75
			c0.043-0.193,0.219-0.334,0.291-0.502c0.057-0.113,0.021-0.273,0.074-0.395c0.055-0.113,0.225-0.201,0.291-0.32
			c0.057-0.098,0.027-0.213,0.072-0.283c0.047-0.072,0.176-0.111,0.219-0.184c0.055-0.082,0.02-0.199,0.074-0.285
			c0.02-0.033,0.154-0.078,0.18-0.145c0.096-0.23,0.311-0.396,0.475-0.57c0-0.049,0-0.096,0-0.145
			c-0.184-0.334-0.504-0.531-0.65-0.896c-1.135,0.469-2.447,0.967-3.971,0.824c-0.273-0.51-0.559-1.006-0.842-1.5
			c0.014-0.502,0.381-0.82,0.617-1.18c0.117-0.176,0.346-0.266,0.439-0.396c0.092-0.137-0.012-0.117,0.18-0.211
			c0.24-0.125,0.461-0.52,0.654-0.648c0.094-0.061,0.24-0.053,0.326-0.104c0.182-0.113,0.342-0.318,0.51-0.395
			c-0.154-0.385-0.213-0.865-0.545-1.072c-1.08,0.373-3.01,0.281-3.898-0.18c0.006-0.289-0.035-0.539-0.178-0.68
			c0.068-0.527-0.26-0.773-0.186-1.18c0.094-0.486,0.738-0.461,0.949-0.896c0.303-0.096,0.563-0.23,0.764-0.43
			c0.563-0.176,1.1-0.375,1.604-0.609c0.047-0.426-0.037-0.721-0.107-1.037c-0.156,0-0.314,0-0.475,0
			c-0.115,0.033-0.051-0.115-0.145-0.105c-1.268-0.041-2.16-0.451-3.023-0.895c-0.271-0.572,0.004-1.353-0.039-2.037
			c1.027-0.553,2.188-0.979,3.754-1.004c0.119-0.285,0.076-0.732,0.219-1c-0.176-0.223-0.488-0.305-0.84-0.356
			c0.043-0.134-0.133-0.058-0.105-0.181c-1.043-0.25-1.607-0.973-2.363-1.502c0.145-0.75,0.285-1.504,0.688-2.002
			c1.141-0.203,2.592-0.258,3.717,0c0.215-0.291,0.391-0.621,0.514-1c-0.748-0.629-1.492-1.258-2.188-1.93
			c-0.02-0.354-0.238-0.506-0.363-0.752c0-0.059,0-0.121,0-0.181c0.139-0.085,0.094-0.284,0.182-0.429
			c0.035-0.061,0.145-0.049,0.184-0.107c0.066-0.092,0.041-0.25,0.107-0.357c0.084-0.131,0.293-0.248,0.363-0.359
			c0.064-0.102,0.008-0.209,0.107-0.282c0.061-0.044,0.215,0.033,0.219-0.073c0.467-0.039,0.723,0.125,1.205,0.073
			c0.113-0.035,0.051,0.117,0.146,0.106c0.338-0.01,0.646,0.074,0.91,0.174c0.131,0.054,0.146,0.054,0.363,0.111
			c0.098,0.024,0.146,0.15,0.217,0.178c0.213,0.08,0.467,0.027,0.586,0.252c0.322,0.109,0.299-0.121,0.398-0.252
			c0.049-0.063,0.211-0.108,0.289-0.215c0.02-0.018,0.188-0.352,0.184-0.285c0.012-0.198-0.355-0.469-0.473-0.611
			c-0.119-0.139-0.195-0.367-0.291-0.501c-0.096-0.129-0.135-0.099-0.182-0.285c-0.051-0.182-0.336-0.464-0.361-0.715
			c0.006-0.079-0.133-0.017-0.188-0.038c-0.051-0.134,0.105-0.066,0.07-0.176c-0.078-0.374-0.307-0.604-0.252-1.11
			c0.426-0.407,0.803-0.86,1.207-1.286c1.725,0.06,2.621,0.935,3.566,1.75c0.303-0.182,0.541-0.424,0.875-0.57
			c-0.184-0.857-0.643-1.445-0.654-2.469c0.033-0.112-0.117-0.049-0.109-0.143c0.02-0.461-0.057-1.012,0.109-1.322
			c0.57-0.173,0.891-0.582,1.496-0.714c0.117,0.032,0.072-0.095,0.146-0.108c0.557,0.355,1.186,0.646,1.564,1.183
			c0.061,0,0.121,0,0.184,0c0.021,0.362,0.436,0.45,0.619,0.713c0.02,0.03,0.008,0.103,0.037,0.14
			c0.055,0.078,0.166,0.107,0.217,0.183c0.064,0.098,0.059,0.327,0.254,0.358c0.289-0.156,0.674-0.224,0.949-0.396
			c-0.184-1.318-0.242-2.798,0.289-3.824c0.438,0.06,0.557-0.194,0.947-0.179c0.115,0.031,0.053-0.119,0.148-0.105
			c0.568-0.147,1.152-0.058,1.277,0.428c0.697,0.692,1.152,1.629,1.488,2.685c0.369,0.015,0.578-0.127,0.986-0.072
			c0.34-0.243,0.242-0.907,0.33-1.396c-0.033-0.114,0.117-0.051,0.109-0.145c0.082-0.894,0.572-1.391,0.838-2.109
			c0.486-0.115,1.193-0.191,1.709-0.105c0.393,0.064,0.455,0.229,0.66,0.571c0.063,0.11,0.063,0.044,0.104,0.218
			c0.049,0.168,0.316,0.33,0.258,0.641c-0.035,0.115,0.092,0.073,0.107,0.142c-0.01,0.428,0.217,0.618,0.182,1.073
			c-0.033,0.117,0.096,0.074,0.107,0.145c0.039,0.299-0.057,0.498,0,0.68C44.542,17.01,45.136,16.819,45.581,16.94z M41.687,14.113
			c-0.166,0.209-0.248,0.497-0.402,0.713c0.004,0.281-0.07,0.481-0.184,0.646c-0.059,0.695-0.117,1.384-0.219,2.038
			c-0.834,0.054-1.553,0.217-2.404,0.252c-0.029-0.123-0.164-0.149-0.219-0.252c0.049-0.269-0.127-0.328-0.068-0.606
			c-0.225-0.201-0.213-0.695-0.361-0.931c-0.09-0.136-0.344-0.214-0.295-0.465c-0.217-0.179-0.383-0.41-0.51-0.683
			c-0.145-0.033-0.211-0.147-0.359-0.178c-0.285,0.151-0.672,0.201-1.023,0.286c-0.396,1.087-0.041,2.433,0.074,3.54
			c-0.172,0.031-0.406,0.176-0.508,0.214c-0.057,0.021-0.16-0.022-0.215,0c-0.158,0.062-0.305,0.22-0.479,0.289
			c-0.055,0.019-0.129-0.021-0.18,0c-0.207,0.063-0.359,0.231-0.438,0.249c-0.504,0.109-0.617-0.188-0.691-0.538
			c-0.15-0.05-0.146-0.256-0.287-0.319c-0.287-0.639-0.914-0.939-1.352-1.431c-0.223,0.046-0.184-0.155-0.328-0.181
			c-0.477,0.105-0.818,0.343-1.17,0.572c0,0.262,0,0.523,0,0.789c0.02,0.068,0.146,0.026,0.113,0.143
			c-0.057,0.29,0.131,0.563,0.182,0.679c0.064,0.149,0.018,0.332,0.074,0.466c0.008,0.025,0.09,0.043,0.105,0.07
			c0.166,0.27,0.219,0.658,0.363,0.93c0.041,0.079,0.193,0.176,0.109,0.359c-0.625,0.409-1.254,0.818-1.787,1.322
			c-0.082,0-0.17,0-0.254,0c-0.232-0.176-0.428-0.579-0.766-0.786c-0.041-0.026-0.145-0.009-0.182-0.038
			c-0.094-0.071-0.125-0.212-0.219-0.284c-0.127-0.099-0.322-0.106-0.438-0.178c-0.066-0.042-0.088-0.144-0.146-0.181
			c-0.178-0.11-0.359-0.084-0.582-0.18c-0.195-0.084-0.344-0.295-0.652-0.213c-0.281,0.072-1.104,0.979-0.547,1.359
			c0,0.07,0,0.144,0,0.213c0.518,0.708,0.951,1.503,1.604,2.074c0.066,0.393-0.215,0.437-0.363,0.679
			c-0.039,0.069,0.006,0.134-0.035,0.182c-0.219,0.265-0.559,0.464-0.729,0.716c-0.086,0.123-0.018,0.301-0.221,0.354
			c-1.063-0.146-1.545-0.862-2.729-0.892c-0.102,0.009-0.027-0.143-0.15-0.107c-0.252,0-0.508,0-0.762,0
			c-0.105,0.385-0.453,0.533-0.363,1.107c0.367,0.463,0.828,0.83,1.203,1.287c0.438,0.086,0.525,0.508,1.023,0.535
			c0.063,0.174,0.252,0.225,0.318,0.395c-0.277,0.369-0.439,0.855-0.688,1.252c-0.104,0.351-0.189,0.723-0.438,0.93
			c-0.164,0.074-0.256-0.07-0.402-0.107c-0.24-0.061-0.537-0.012-0.764-0.073c-0.066-0.019-0.076-0.097-0.145-0.105
			c-0.771-0.112-1.609,0.031-2.301,0.105c-0.104,0.325-0.211,0.647-0.18,1.11c0.566,0.408,1.059,0.894,1.857,1.073
			c0.242,0.356,1.051,0.159,1.24,0.569c-0.113,0.211-0.002,0.643-0.184,0.791c-0.074,0.533-0.041,1.175-0.252,1.572
			c-1.4-0.004-2.578,0.215-3.535,0.645c0,0.357,0,0.714,0,1.072c0.953,0.387,1.918,0.762,3.354,0.678
			c0.104,0.064,0.168,0.172,0.254,0.252c-0.059,0.881,0.195,1.455,0.182,2.289c-0.086,0-0.168,0-0.252,0
			c-0.355,0.166-0.773,0.266-1.205,0.357c-0.402,0.248-0.875,0.479-1.279,0.643c-0.086,0.129-0.146,0.285-0.361,0.289
			c0.027,0.201-0.182,0.178-0.107,0.428c0.176,0.209,0.15,0.615,0.291,0.854c1.063,0.105,2.199,0.133,2.951-0.104
			c0.211-0.068,0.418-0.059,0.619-0.072c0.02,0.107,0.135,0.131,0.182,0.215c-0.053,0.334,0.146,0.422,0.219,0.607
			c0.057,0.141,0.021,0.291,0.07,0.43c0.014,0.025,0.094,0.039,0.111,0.072c0.16,0.33,0.244,0.65,0.359,0.998
			c-0.154,0.17-0.396,0.25-0.545,0.43c-0.809,0.303-1.277,0.939-1.895,1.432c0.025,0.186-0.08,0.232-0.18,0.289
			c-0.051,0.598,0.213,0.883,0.545,1.105c0.209-0.135,0.535-0.068,0.838-0.105c0.158-0.021,0.322-0.137,0.512-0.182
			c0.189-0.039,0.414-0.018,0.545-0.068c0.094-0.039,0.178-0.168,0.289-0.215c0.352-0.146,0.746-0.201,0.877-0.428
			c0.148,0,0.287,0,0.438,0c0.148,0.572,0.672,0.793,0.838,1.355c0.232,0.145,0.396,0.354,0.584,0.539c0,0.117,0,0.238,0,0.355
			c-0.832,0.744-1.656,1.5-1.896,2.826c0.246,0.186,0.389,0.48,0.73,0.568c0.32-0.117,0.641-0.254,0.984-0.355
			c0.23-0.252,0.531-0.43,0.91-0.537c0.377-0.318,0.699-0.691,1.17-0.932c0.65,0.48,1.279,0.984,1.967,1.434
			c0,0.115,0,0.236,0,0.357c-0.498,0.633-0.77,1.484-1.061,2.322c0,0.238,0,0.479,0,0.717c0.297,0.244,0.557,0.521,1.166,0.465
			c0.203-0.23,0.506-0.361,0.691-0.609c0.225-0.076,0.4-0.205,0.438-0.465c0.061,0,0.121,0,0.184,0
			c0.172-0.51,0.641-0.729,0.764-1.289c0.166-0.168,0.258-0.061,0.359,0c0.131,0.078,0.449,0.131,0.549,0.184
			c0.02,0.012,0.002,0.094,0.037,0.104c0.225,0.09,0.406,0.021,0.51,0.18c0.459,0.098,0.926,0.189,1.168,0.504
			c-0.279,0.969-0.541,2.354-0.184,3.436c0.449-0.014,0.645,0.229,1.129,0.176c0.178-0.229,0.307-0.508,0.582-0.643
			c0.24-0.713,0.758-1.168,0.838-2.037c0.129-0.074,0.105-0.303,0.256-0.359c0.205-0.074,0.594,0.047,0.984,0
			c0.094-0.01,0.025,0.141,0.145,0.107c0.578,0.006,1.111,0.055,1.422,0.322c-0.061,0.68,0.072,1.168,0.111,1.752
			c0.016,0.068,0.141,0.025,0.104,0.145c-0.018,0.316,0.201,0.705,0.293,0.895c0.064,0.133,0.057,0.32,0.074,0.355
			c0.158,0.271,0.668,0.146,1.129,0.18c0.459-0.395,0.541-1.162,0.764-1.787c-0.029-0.566,0.133-0.947,0.076-1.537
			c0.1-0.01,0.1-0.117,0.186-0.146c0.799-0.049,1.535-0.16,2.254-0.287c0.047,0.111,0.135,0.18,0.219,0.252
			c0.205,1.23,0.795,2.084,1.422,2.896c0.578-0.023,1.039-0.17,1.422-0.396c0.172-1.221,0.006-2.396-0.291-3.359
			c0.396-0.219,0.861-0.369,1.385-0.467c0.191-0.252,0.639-0.256,0.875-0.465c0.205-0.033,0.215,0.123,0.363,0.145
			c0.277,0.563,0.594,1.082,1.059,1.465c0,0.047,0,0.096,0,0.145c0.473,0.182,0.688,0.615,1.135,0.824
			c0.391-0.104,0.676-0.313,1.02-0.465c0.023-0.504-0.018-0.939-0.074-1.357c-0.191-0.242-0.197-0.473-0.287-0.756
			c-0.061-0.178-0.229-0.287-0.291-0.428c-0.168-0.352-0.336-0.51-0.361-0.895c0.709-0.426,1.354-0.914,1.967-1.434
			c0.271-0.074,0.24,0.143,0.471,0.105c0.299,0.391,0.791,0.588,1.061,1.004c0.227,0.025,0.406,0.102,0.473,0.283
			c0.326,0.043,0.506,0.217,0.732,0.357c0.213-0.049,0.264,0.07,0.436,0.07c0.352-0.176,0.711-0.342,0.613-0.965
			c-0.246-0.48-0.484-0.979-0.838-1.355c0-0.049,0-0.098,0-0.143c-0.156-0.139-0.51-0.318-0.652-0.572
			c-0.02-0.033,0.021-0.113,0-0.145c-0.127-0.154-0.41-0.199-0.293-0.535c0.596-0.566,1.055-1.281,1.57-1.934
			c0.229-0.047,0.289,0.072,0.475,0.072c0.486,0.482,1.313,0.641,1.998,0.93c0.131,0,0.27,0,0.4,0
			c0.09,0.152,0.387,0.104,0.619,0.109c0.215-0.314,0.496-0.564,0.51-1.076c-0.555-0.986-1.578-1.527-2.551-2.105
			c0-0.17,0-0.332,0-0.504c0.49-0.551,0.541-1.533,1.127-2.004c0.98,0.275,2.311,0.51,3.498,0.252
			c0.061-0.414,0.313-0.645,0.256-1.178c-0.744-0.586-1.695-0.961-2.701-1.289c-0.232,0.02-0.396-0.039-0.506-0.143
			c0.043-0.838,0.316-1.449,0.293-2.361c0.098-0.008,0.096-0.117,0.18-0.145c1.516,0.107,2.666-0.146,3.5-0.715
			c0-0.311,0-0.62,0-0.931c-0.754-0.502-2.164-0.736-3.281-0.643c-0.055-0.117-0.26-0.079-0.291-0.213
			c-0.006-0.895-0.279-1.514-0.291-2.399c0.102-0.092,0.258-0.127,0.361-0.214c1.188-0.238,2.158-0.695,2.842-1.43
			c-0.137-0.21-0.094-0.598-0.178-0.857c-0.137-0.012-0.242-0.154-0.365-0.18c-1.043-0.223-2.438,0.14-3.242,0.287
			c-0.357-0.176-0.273-0.59-0.436-1c-0.012-0.025-0.094-0.042-0.111-0.072c-0.141-0.232-0.162-0.548-0.291-0.788
			c-0.09-0.157-0.264-0.211-0.178-0.466c0.273-0.266,0.58-0.501,1.021-0.609c0.502-0.521,1.143-0.904,1.527-1.537
			c0.004-0.551-0.273-0.822-0.51-1.146c-0.838,0.063-1.449,0.341-2.219,0.468c-0.314,0.304-0.717,0.515-1.281,0.571
			c-0.402-0.727-1.002-1.258-1.455-1.934c0-0.059,0-0.119,0-0.179c0.355-0.239,0.574-0.608,0.951-0.823
			c-0.021-0.223,0.123-0.279,0.252-0.356c0.057-0.265,0.201-0.447,0.4-0.573c0.027-0.41,0.242-0.64,0.359-0.965
			c-0.137-0.174-0.262-0.365-0.359-0.571c-0.188,0.026-0.238-0.079-0.293-0.18c-1.018,0.088-1.602,0.598-2.221,1.073
			c-0.479,0.05-0.512,0.753-0.947,0.748c-0.184,0-0.271-0.272-0.514-0.463c-0.027-0.022-0.107,0.018-0.145,0
			c-0.104-0.051-0.189-0.246-0.256-0.287c-0.035-0.021-0.113,0.025-0.148,0c-0.23-0.178-0.404-0.43-0.578-0.536
			c-0.045-0.025-0.145,0.028-0.186,0c-0.125-0.087-0.105-0.193-0.219-0.248c0-0.12,0-0.242,0-0.357
			c0.576-0.758,0.977-1.69,1.061-2.935c-0.189-0.262-0.652-0.242-0.838-0.5c-0.35,0.054-0.504,0.294-0.73,0.464
			c-0.045,0-0.094,0-0.143,0c-0.578,0.594-1.131,1.202-1.57,1.933c-0.104,0-0.219,0-0.324,0c-0.613-0.356-1.471-0.488-2.041-0.896
			c0.029-0.256-0.016-0.528,0.072-0.785c0.021-0.057,0.098-0.076,0.107-0.145c0.145-0.774,0.096-1.664,0-2.467
			c-0.385-0.111-0.791-0.203-1.203-0.287c-0.48,0.541-0.977,1.072-1.166,1.896c-0.316,0.231-0.205,0.876-0.508,1.11
			c-0.83-0.047-1.557-0.196-2.369-0.25c-0.021-0.084-0.121-0.097-0.146-0.18c0.064-1.33-0.174-2.357-0.58-3.218
			C42.608,14.113,42.144,14.113,41.687,14.113z"/>
		<path fill="#042539" d="M40.919,18.477c5.783-0.304,10.195,1.985,13.154,4.685c3.025,2.76,5.34,6.633,5.682,11.979
			c0.359,5.634-2.047,10.021-4.77,12.839c-2.93,3.029-6.656,5.285-12.172,5.615c-5.688,0.342-10.189-2.012-13.115-4.648
			c-3.023-2.723-5.404-6.604-5.723-11.947c-0.342-5.741,1.986-9.975,4.703-12.906c2.049-2.217,4.867-4.051,8.342-5.01
			C38.206,18.759,39.636,18.546,40.919,18.477z M37.204,19.943c-3.293,0.932-5.941,2.686-7.875,4.795
			c-2.555,2.782-4.799,6.832-4.441,12.263c0.338,5.201,2.514,8.586,5.463,11.305c2.734,2.52,7.086,4.738,12.459,4.395
			c5.123-0.322,8.936-2.51,11.553-5.328c2.549-2.748,4.842-6.834,4.48-12.231c-0.344-5.071-2.576-8.638-5.43-11.336
			c-2.729-2.58-7.051-4.75-12.498-4.435C39.743,19.44,38.302,19.632,37.204,19.943z"/>
		<path fill="#042539" d="M42.335,22.444c0.189,0.24,0.209,0.632,0.189,1.076c0.004,0.041,0.063,0.029,0.104,0.034
			c-0.043,0.334,0.059,0.516,0.074,0.788c0.008,0.042,0.064,0.03,0.107,0.036c0.01,0.256,0,0.525,0.184,0.607
			c-0.018,0.592,0.307,0.842,0.363,1.359c0.24,0.122,0.127,0.593,0.396,0.679c0.025,0.155,0.025,0.333,0.184,0.356
			c-0.002,0.365,0.313,0.418,0.293,0.789c0.133,0.13,0.266,0.266,0.256,0.535c0.176-0.021,0.018,0.293,0.217,0.25
			c-0.051,0.242,0.121,0.265,0.072,0.502c0.008,0.041,0.063,0.031,0.104,0.035c0.021,0.221,0.014,0.469,0.188,0.535
			c-0.043,0.4,0.221,0.5,0.184,0.896c0.006,0.039,0.063,0.031,0.107,0.035c-0.057,0.304,0.113,0.388,0.068,0.681
			c0.012,0.04,0.064,0.026,0.109,0.035c-0.057,0.915,0.219,1.5,0.182,2.396c-0.031,0-0.068,0-0.104,0
			c0.047,0.618-0.063,1.086-0.074,1.646c-0.035,0-0.07,0-0.107,0c0.057,0.354-0.107,0.492-0.072,0.82c-0.035,0-0.072,0-0.107,0
			c0,0.099,0,0.195,0,0.291c-0.152,0.32-0.273,0.684-0.367,1.07c-0.025,0-0.064,0-0.104,0c0.012,0.318-0.105,0.516-0.289,0.643
			c0.057,0.232-0.092,0.27-0.074,0.465c-0.336,0.182-0.359,0.672-0.58,0.969c0,0.105,0,0.213,0,0.318
			c-0.029,0.115,0.119,0.053,0.107,0.145c-0.059,0.617,0.475,0.654,0.656,1.039c0.096,0,0.229-0.035,0.18,0.104
			c0.43,0.084,0.963,0.105,1.387,0c0.367-0.295,0.781-0.545,0.873-1.105c0.041,0,0.074,0,0.113,0c0-0.098,0-0.191,0-0.289
			c0.033,0,0.07,0,0.104,0c-0.02-0.434,0.127-0.705,0.074-1.18c0.033,0,0.076,0,0.107,0c-0.059-0.537-0.141-1.057-0.184-1.607
			c-0.008-0.039-0.064-0.027-0.105-0.033c-0.021-0.092,0.02-0.18,0-0.252c-0.021-0.051-0.094-0.002-0.111-0.033
			c-0.057-0.096-0.002-0.385-0.182-0.357c0.049-0.369-0.264-0.388-0.184-0.789c-0.008-0.042-0.064-0.03-0.105-0.035
			c-0.09-0.645-0.09-1.287,0-1.931c0.039,0,0.074,0,0.105,0c-0.041-0.622,0.42-0.755,0.475-1.289
			c0.137,0.052,0.068-0.097,0.184-0.072c0.066-0.417,0.512-0.473,0.654-0.821c0.051,0,0.096,0,0.139,0
			c0.072-0.091,0.127-0.193,0.295-0.182c0.135-0.25,0.545-0.225,0.691-0.464c0.109-0.024,0.346,0.075,0.293-0.108
			c0.314-0.012,0.535-0.115,0.912-0.07c0.043-0.004,0.027-0.063,0.035-0.104c0.277,0,0.561,0,0.84,0c0,0.031,0,0.07,0,0.104
			c0.395-0.051,0.59,0.09,0.945,0.07c0.107,0.209,0.398,0.23,0.656,0.288c0.008,0.144,0.127,0.181,0.293,0.181
			c0.006,0.145,0.129,0.18,0.285,0.178c0.168,0.375,0.615,0.472,0.73,0.895c0.314,0.26,0.527,0.625,0.578,1.146
			c-0.072-0.015-0.113,0.007-0.105,0.069c-0.125,0.004-0.264,0.021-0.293-0.069c-0.385,0.038-0.967-0.12-1.092,0.177
			c-0.379,0.037-0.512,0.309-0.582,0.646c-0.035,0-0.07,0-0.111,0c-0.055,0.473,0.072,0.765,0.111,1.14
			c0.201,0.258,0.309,0.608,0.365,1.004c0.006,0.041,0.063,0.027,0.105,0.037c0.045,0.143-0.105,0.488,0.109,0.463
			c0.1,0.996,0.1,2.189,0,3.184c-0.209-0.037-0.072,0.268-0.109,0.396c-0.037,0-0.074,0-0.105,0c0.047,0.52-0.279,0.684-0.258,1.18
			c-0.213-0.078-0.006,0.252-0.223,0.18c-0.055,0.445-0.371,0.631-0.438,1.074c-0.104,0.002-0.076,0.135-0.215,0.105
			c-0.053,0.248-0.158,0.439-0.363,0.533c0,0.074,0,0.145,0,0.219c-0.432,0.268-0.668,0.727-1.023,1.068
			c-0.396,0.002-0.354,0.439-0.727,0.469c-0.068,0.086-0.121,0.188-0.295,0.176c-0.104,0.145-0.27,0.234-0.471,0.285
			c-0.033,0.064-0.094,0.1-0.107,0.18c-0.545,0.096-0.803,0.477-1.387,0.537c-0.039,0.006-0.025,0.063-0.035,0.105
			c-0.105,0.025-0.342-0.074-0.287,0.107c-0.232,0.021-0.506,0.004-0.58,0.178c-0.77,0.027-1.244,0.332-2.113,0.248
			c-0.17,0.936,0.184,2.379-0.256,3.043c-1.48,0.205-3.311,0.26-4.773,0c0-0.096,0.031-0.227-0.107-0.182c0-0.977,0-1.953,0-2.93
			c-0.098,0-0.193,0-0.291,0c-0.115,0.031-0.076-0.096-0.146-0.109c-0.947,0.086-1.48-0.236-2.219-0.355c0-0.035,0-0.07,0-0.105
			c-0.475-0.025-0.691-0.301-1.131-0.357c0.021-0.107-0.129-0.043-0.072-0.18c-0.287-0.051-0.543-0.135-0.658-0.355
			c-0.066,0-0.143,0-0.215,0c0.051-0.141-0.1-0.07-0.076-0.178c-0.393-0.021-0.365-0.449-0.764-0.467
			c-0.484-0.609-1.16-1.031-1.494-1.787c-0.113-0.01-0.072-0.17-0.219-0.143c0.031-0.348-0.285-0.338-0.254-0.684
			c-0.221-0.119-0.174-0.494-0.396-0.609c-0.01-0.193-0.016-0.391-0.188-0.428c-0.004-0.268,0.01-0.559-0.18-0.643
			c-0.051-0.146,0.105-0.488-0.107-0.467c-0.129-1.158-0.107-2.539,0.107-3.576c0.035,0,0.07,0,0.105,0
			c-0.057-0.293,0.109-0.371,0.072-0.646c0.037,0,0.07,0,0.109,0c0.006-0.209,0.027-0.399,0.184-0.465
			c0.006-0.194,0.014-0.391,0.182-0.428c0-0.094,0-0.189,0-0.285c0.035,0,0.068,0,0.105,0c0.057-0.388-0.063-0.604-0.105-0.892
			c-0.17-0.205-0.385-0.367-0.545-0.573c-0.404-0.105-0.889-0.133-1.422-0.109c-0.094-0.474,0.215-0.556,0.258-0.895
			c0.438-0.365,0.709-0.9,1.307-1.107c0.037-0.061,0.139-0.06,0.111-0.18c0.504-0.074,0.752-0.406,1.383-0.355
			c0.045-0.006,0.031-0.066,0.039-0.106c0.816-0.063,1.428,0.08,2.076,0.177c-0.053,0.185,0.188,0.084,0.287,0.109
			c0.023,0.156,0.207,0.154,0.365,0.178c0,0.037,0,0.07,0,0.106c0.32-0.042,0.262,0.293,0.582,0.251
			c0.432,0.566,1.023,0.975,1.205,1.788c0.004,0.042,0.063,0.03,0.107,0.034c0.023,0.106-0.08,0.336,0.107,0.287
			c0.084,0.652,0.1,1.354,0,2c-0.033,0-0.074,0-0.107,0c0.006,0.533-0.361,0.695-0.367,1.214c-0.242-0.002-0.061,0.418-0.289,0.434
			c-0.041,0.127,0.104,0.43-0.104,0.391c-0.02,0.766-0.09,1.238,0,1.971c0.006,0.041,0.063,0.029,0.104,0.033
			c0.057,0.277,0.023,0.572,0.184,0.787c0.018,0.021,0.102,0.021,0.105,0.037c0.066,0.119,0.02,0.18,0.074,0.25
			c0.037,0.041,0.131,0.041,0.186,0.107c0.061,0.074,0.021,0.213,0.107,0.283c0.027,0.031,0.141-0.018,0.184,0
			c0.063,0.025,0.094,0.174,0.105,0.182c0.047,0.021,0.141-0.031,0.186,0c0.047,0.027,0.172,0.152,0.32,0.178
			c0.336,0.057,0.682-0.055,0.949-0.072c0.041-0.064,0.072-0.145,0.219-0.104c0.031-0.064,0.096-0.1,0.109-0.182
			c0.232-0.012,0.361-0.121,0.365-0.354c0.395-0.254,0.395-1.324,0-1.572c0-0.313-0.303-0.324-0.256-0.682
			c-0.008-0.043-0.064-0.029-0.109-0.035c0-0.084,0-0.168,0-0.252c-0.188-0.041-0.104-0.344-0.291-0.391
			c-0.016-0.617-0.393-0.875-0.359-1.541c-0.008-0.042-0.066-0.029-0.109-0.035c0.025-0.396-0.129-0.613-0.074-1.037
			c-0.004-0.044-0.063-0.033-0.105-0.037c-0.055-1.4,0.033-2.662,0.182-3.863c0.037,0,0.074,0,0.111,0
			c-0.057-0.313,0.121-0.404,0.072-0.715c0.188,0.049,0.082-0.183,0.105-0.285c0.037,0,0.07,0,0.105,0
			c-0.02-0.571,0.396-0.711,0.363-1.291c0.158-0.021,0.156-0.205,0.182-0.357c0.176-0.042,0.188-0.251,0.188-0.465
			c0.172-0.104,0.26-0.293,0.289-0.536c0.158-0.024,0.158-0.203,0.182-0.356c0.035,0,0.074,0,0.111,0
			c0.018-0.438,0.377-0.537,0.359-1.002c0.16-0.15,0.293-0.337,0.293-0.644c0.146-0.073,0.197-0.233,0.184-0.466
			c0.037,0,0.072,0,0.111,0c0-0.607,0.391-0.831,0.357-1.465c0.035,0,0.07,0,0.109,0c-0.021-0.435,0.127-0.709,0.068-1.18
			c0.166,0.051,0.104-0.117,0.111-0.214C42.187,22.537,42.163,22.395,42.335,22.444z M41.937,25.093
			c-0.057,0.171-0.014,0.363-0.068,0.537c-0.008,0.012-0.1,0.015-0.115,0.037c-0.096,0.218-0.092,0.597-0.18,0.787
			c-0.006,0.02-0.092,0.004-0.105,0.037c-0.027,0.077,0.021,0.161,0,0.25c-0.068,0.23-0.355,0.483-0.438,0.752
			c-0.02,0.067,0.025,0.155,0,0.213c-0.043,0.098-0.176,0.16-0.215,0.252c-0.092,0.187-0.139,0.386-0.186,0.5
			c-0.094,0.224-0.117,0.43-0.184,0.679c-0.057,0.231-0.205,0.454-0.291,0.714c-0.045,0.145-0.029,0.311-0.07,0.466
			c-0.033,0.138-0.197,0.443-0.219,0.538c-0.063,0.26-0.078,0.564-0.076,0.855c0.016,0.094-0.139,0.027-0.105,0.143
			c-0.035,0.643-0.105,1.255-0.072,1.969c0.012,0.092-0.141,0.025-0.107,0.141c0.148,0.781,0.107,1.75,0.184,2.609
			c-0.02,0.096,0.143,0.031,0.105,0.146c-0.041,0.459,0.189,0.648,0.186,1.07c0.006,0.068,0.121,0.023,0.109,0.105
			c0.098,0.729,0.701,0.973,0.729,1.789c0.02,0.066,0.141,0.027,0.111,0.143c0,0.189,0,0.383,0,0.57
			c0.01,0.098-0.143,0.029-0.111,0.145c-0.209,0.912-0.771,1.484-1.748,1.646c-0.068,0.016-0.025,0.143-0.146,0.105
			c-0.332,0.07-0.678-0.061-0.838-0.105c-0.063-0.02-0.164,0.016-0.219,0c-0.098-0.021-0.143-0.125-0.254-0.184
			c-0.117-0.051-0.27-0.023-0.326-0.066c-0.133-0.09-0.746-0.691-0.803-0.824c-0.129-0.287-0.365-0.43-0.471-0.715
			c-0.119-0.318-0.133-0.508-0.186-0.82c-0.016-0.068-0.145-0.025-0.107-0.143c-0.037-0.656,0.025-1.213,0.107-1.756
			c0.018-0.068,0.143-0.027,0.107-0.141c0.146-0.855,0.639-1.38,0.84-2.181c0-0.456,0-0.91,0-1.359
			c-0.137-0.119-0.174-0.33-0.186-0.573c-0.166-0.042-0.125-0.287-0.291-0.323c-0.104-0.491-0.557-0.643-0.838-0.966
			c-0.428,0.005-0.438-0.401-0.912-0.356c-0.039-0.091-0.031-0.089-0.109-0.105c-1.463-0.402-3.035,0.269-3.605,1.072
			c0,0.049,0,0.094,0,0.143c0.23,0.059,0.355,0.232,0.619,0.248c0.105,0.125,0.158,0.3,0.4,0.288
			c0.061,0.329,0.309,0.382,0.398,0.643c0.129,0.361,0.121,0.769,0.072,1.037c-0.018,0.104-0.164,0.29-0.184,0.321
			c-0.023,0.04,0.027,0.143,0,0.182c-0.012,0.012-0.102-0.018-0.107,0c-0.158,0.337-0.154,0.794-0.363,1.072
			c0,0.119,0,0.238,0,0.357c-0.016,0.066-0.141,0.025-0.105,0.145c-0.121,0.895-0.08,1.957,0,2.859
			c0.137,0.305,0.271,0.615,0.289,1.037c0.117,0.102,0.205,0.23,0.186,0.465c0.146,0.162,0.291,0.328,0.287,0.643
			c0.098,0.016,0.133,0.086,0.109,0.215c0.334,0.365,0.594,0.803,0.838,1.252c0.34,0.254,0.609,0.572,0.838,0.932
			c0.076,0,0.146,0,0.221,0c0.277,0.373,0.613,0.688,1.127,0.82c-0.053,0.137,0.1,0.07,0.074,0.182
			c0.541,0.205,0.941,0.559,1.604,0.645c0.094,0.16,0.35,0.162,0.58,0.184c0.006,0.057-0.004,0.121,0.074,0.105
			c0.287,0.023,0.578,0.051,0.768,0.178c2.178,0.105,4.787,0.121,6.953,0c0.07-0.016,0.029-0.141,0.148-0.104
			c0.957-0.066,1.508-0.525,2.33-0.721c0.23-0.264,0.604-0.391,0.949-0.535c0.607-0.537,1.17-1.119,1.785-1.645
			c0-0.063,0-0.117,0-0.18c0.871-0.842,1.307-2.102,1.711-3.396c0.113-0.957,0.104-2.227,0-3.182
			c-0.154-0.148-0.15-0.448-0.184-0.714c-0.199-0.473-0.451-0.893-0.395-1.61c0.109-0.161,0.191-0.358,0.211-0.608
			c0.088-0.051,0.148-0.113,0.221-0.18c0.174-0.488,0.801-0.527,1.168-0.822c0.008-0.262-0.305-0.205-0.254-0.5
			c-0.281,0-0.355-0.199-0.475-0.36c-0.455-0.052-0.615-0.396-1.166-0.358c-0.098,0.01-0.025-0.14-0.146-0.105
			c-0.463,0-0.92,0-1.381,0c-0.096-0.012-0.029,0.136-0.146,0.105c-0.383-0.063-0.406,0.221-0.768,0.178
			c-0.551,0.521-1.334,0.813-1.492,1.721c-0.268,0.107-0.158,0.578-0.184,0.927c0,0.097-0.115,0.081-0.109,0.181
			c0.107-0.054,0.107,0.158,0,0.105c-0.02,0.125,0.129,0.087,0.109,0.215c-0.014,0.668,0.205,1.112,0.473,1.5
			c0.104,0.402,0.242,0.764,0.367,1.145c0,0.135,0,0.266,0,0.396c0.184,0.439,0.021,1.135,0,1.607
			c0.008,0.094-0.145,0.027-0.111,0.145c0.053,0.193-0.145,0.348-0.182,0.395c-0.047,0.061-0.031,0.242-0.074,0.32
			c-0.072,0.127-0.234,0.225-0.291,0.322c-0.125,0.229-0.27,0.408-0.473,0.604c-0.373,0.367-0.668,0.541-1.127,0.754
			c-0.125,0-0.246,0-0.365,0c-0.24,0.293-0.539-0.094-0.914,0c-0.104-0.123-0.266-0.191-0.51-0.18
			c-0.652-0.531-1.285-1.1-1.166-2.396c0.15-0.051,0.068-0.201,0.111-0.318c0.008-0.023,0.094-0.021,0.107-0.035
			c0.023-0.043-0.027-0.141,0-0.182c0.029-0.049,0.148-0.059,0.184-0.107c0.055-0.088,0.09-0.342,0.18-0.5
			c0.016-0.02,0.1-0.02,0.107-0.035c0.053-0.09,0.018-0.238,0.074-0.324c0.018-0.016,0.102-0.02,0.105-0.033
			c0.084-0.162,0.137-0.42,0.18-0.537c0.143-0.328,0.107-0.67,0.293-0.998c0.207-1.349,0.205-2.904,0.188-4.474
			c-0.193-0.297-0.104-0.875-0.188-1.284c-0.014-0.07-0.139-0.028-0.104-0.146c-0.277-1.803-1.02-3.147-1.605-4.646
			c-0.047-0.625-0.369-0.976-0.365-1.647c-0.107,0.024-0.066-0.099-0.178-0.07C42.134,24.656,41.989,24.942,41.937,25.093z
			 M40.298,47.337c-0.039,0.777-0.1,1.893,0.035,2.609c0.982,0.121,2.24,0.262,3.135-0.035c0.166-0.717,0.023-1.736,0.072-2.574
			C42.46,47.337,41.38,47.337,40.298,47.337z"/>
		<path fill="#042539" d="M12.499,25.628c0.941-0.17,1.734,0.445,1.855,1.145c0.41,2.344-3.344,2.491-3.1,0.145
			C11.335,26.199,11.841,25.748,12.499,25.628z"/>
		<path fill="#042539" d="M71.53,26.095c1.127-0.178,2.246,0.898,1.672,2.143c-0.158,0.344-0.459,0.598-0.691,0.717
			c-0.992,0.512-2.389-0.277-2.297-1.504C70.274,26.692,70.812,26.205,71.53,26.095z"/>
		<path fill="#042539" d="M42.335,28.133c-0.104,2.097,0.777,3.225,1.316,4.685c0,0.106,0,0.215,0,0.319
			c-0.033,0.119,0.094,0.077,0.105,0.144c0,0.631,0,1.264,0,1.897c-0.096,0.091-0.133,0.251-0.105,0.464
			c-0.299,0.986-0.838,1.73-1.238,2.609c0,0.098,0,0.189,0,0.285c-0.07,0.055-0.131,0.113-0.186,0.182c-0.158,0-0.314,0-0.477,0
			c-0.066-0.121-0.162-0.221-0.285-0.287c0.039-0.945-0.594-1.229-0.729-2.002c-0.129-0.043-0.07-0.265-0.217-0.288
			c-0.021-0.286-0.027-0.592-0.188-0.749c-0.057-0.744-0.047-1.217,0-1.966c-0.031-0.113,0.098-0.075,0.109-0.145
			c0.219-1.455,1.137-2.22,1.309-3.718c-0.023-0.114,0.125-0.049,0.115-0.146C41.966,28.973,41.804,27.806,42.335,28.133z
			 M41.937,30.781c-0.033,0.202-0.004,0.467-0.186,0.535c0,0.213-0.006,0.424-0.18,0.467c0.113,0.133-0.123,0.322-0.105,0.286
			c-0.059,0.177,0.021,0.456-0.184,0.534c0.035,0.333-0.131,0.471-0.07,0.822c-0.037,0-0.074,0-0.111,0
			c0.041,0.144-0.082,0.439,0.074,0.466c0.111-0.616,1.549-0.624,1.783-0.106c0.086-0.143,0.016-0.441,0.035-0.646
			c-0.041-0.003-0.102,0.007-0.104-0.035c0.053-0.339-0.117-0.461-0.074-0.786c-0.045-0.005-0.104,0.004-0.111-0.035
			c-0.045-0.457-0.322-0.683-0.365-1.146c-0.041-0.005-0.098,0.007-0.104-0.038c0.055-0.221-0.102-0.232-0.07-0.43
			c-0.039,0-0.074,0-0.109,0C42.071,30.766,42.034,30.801,41.937,30.781z M41.101,35.785c0.047,0.02,0.084,0.039,0.109,0.073
			c-0.055,0.286,0.123,0.36,0.074,0.646c0.131,0.119,0.158,0.339,0.18,0.572c0.307,0.201,0.271,0.732,0.582,0.932
			c0.002-0.26,0.234-0.299,0.182-0.609c0.242-0.074,0.205-0.369,0.295-0.568c0.002-0.012,0.094-0.021,0.104-0.037
			c0.066-0.092,0.023-0.285,0.074-0.396c0.021-0.051,0.09-0.042,0.109-0.105c0.111-0.373,0.205-0.652,0.104-0.93
			c-0.281,0.402-1.209,0.463-1.674,0.176c-0.066-0.041,0.02-0.229-0.143-0.176C41.101,35.501,41.101,35.643,41.101,35.785z"/>
		<path fill="#042539" d="M34.325,33.712c0.355-0.053,0.377,0.224,0.656,0.25c0.176,0.464,0.373,0.918,0.289,1.646
			c-0.043,0.125-0.158,0.176-0.113,0.393c-0.131,0.201-0.172,0.494-0.176,0.824c0.025,0.113-0.123,0.049-0.111,0.141
			c0.021,0.814-0.244,1.811,0.111,2.434c-0.035,0.799,0.391,1.145,0.65,1.646c0,0.105,0,0.217,0,0.324
			c-0.131,0.053-0.201,0.176-0.287,0.283c-1.064-0.004-1.646-0.484-2.188-1c-0.059,0-0.123,0-0.18,0
			c-0.316-0.395-0.547-0.871-0.73-1.395c0.02-0.676-0.047-1.117,0.074-1.541c0.018-0.07,0.08-0.039,0.105-0.105
			c0.063-0.148-0.008-0.287,0.072-0.428c0.012-0.02,0.1-0.016,0.109-0.037c0.02-0.035-0.025-0.109,0-0.146
			c0.021-0.033,0.156-0.055,0.18-0.104c0.025-0.043-0.027-0.139,0-0.178c0.203-0.267,0.533-0.49,0.764-0.714
			c0.254-0.244,0.559-0.465,0.768-0.717c0.033-0.043,0.021-0.153,0.07-0.215c0.041-0.047,0.15-0.061,0.184-0.105
			c0.023-0.043-0.025-0.137,0-0.18c0.037-0.072,0.141-0.133,0.109-0.358c-0.02-0.117-0.203-0.199-0.109-0.321
			C34.503,33.962,34.288,33.96,34.325,33.712z M33.267,37.146c-0.102,0.48-0.313,0.867-0.359,1.395
			c0.199,0.021,0.137-0.223,0.25-0.287c0.354-0.104,0.846-0.117,0.949,0.215c-0.109-1.154,0.271-1.832,0.475-2.681
			C33.958,36.057,33.661,36.651,33.267,37.146z M33.306,39.649c-0.059-0.08-0.076-0.189-0.225-0.18
			c0.15,0.596,0.646,0.846,0.951,1.287c0.434,0.09,0.598,0.438,1.127,0.428c-0.248-0.633-0.688-1.084-0.832-1.824
			C33.942,39.415,33.854,39.757,33.306,39.649z"/>
		<path fill="#042539" d="M49.7,33.783c0.125,0,0.244,0,0.359,0c0,0.094,0,0.191,0,0.285c-0.332,0.028-0.43,0.29-0.473,0.611
			c0.014,0.04,0.064,0.029,0.111,0.033c-0.002,0.505,0.445,0.563,0.545,0.962c0.332,0.321,0.729,0.579,0.947,1.004
			c0.219,0.082,0.184,0.418,0.402,0.5c0.021,0.154,0.02,0.334,0.186,0.357c0.098,0.611,0.098,1.389,0,2.004
			c-0.176,0.041-0.186,0.25-0.186,0.467c-0.17-0.064-0.051,0.166-0.221,0.105c-0.188,0.492-0.523,0.84-0.984,1.068
			c-0.066,0.09-0.119,0.193-0.291,0.184c-0.045,0.002-0.025,0.063-0.037,0.105c-0.359,0.061-0.537,0.303-0.91,0.357
			c-0.043,0.004-0.031,0.064-0.039,0.105c-0.139-0.141-0.438-0.115-0.652-0.182c-0.049-0.225-0.164-0.391-0.105-0.715
			c0.313-0.088,0.238-0.551,0.508-0.682c-0.018-0.609,0.303-0.893,0.252-1.535c0.039,0,0.076,0,0.113,0c0-0.541,0-1.074,0-1.611
			c-0.006-0.041-0.066-0.027-0.113-0.035c0.02-1.229-0.785-2.97,0.586-3.29C49.7,33.853,49.7,33.82,49.7,33.783z M49.886,38.647
			c0.234-0.379,1.037-0.371,1.199,0.07c0.131-0.32-0.086-0.604-0.18-0.822c-0.055-1.066-0.773-1.482-1.279-2.109
			C49.587,36.685,50.265,37.64,49.886,38.647z M48.862,41.366c0.549-0.059,0.723-0.484,1.199-0.607
			c0.098-0.244,0.391-0.291,0.439-0.574c0.047,0,0.096,0,0.146,0c0.043-0.158,0.02-0.383,0.256-0.355c0-0.059,0-0.119,0-0.178
			c-0.285,0.086-0.791,0.125-1.021-0.037c0.004-0.15-0.068-0.221-0.186-0.248C49.577,40.187,49.048,40.608,48.862,41.366z"/>
		<path fill="#042539" d="M73.528,35.427c0.143-0.063,0.367-0.044,0.438-0.178c0.521,0.014,0.766-0.558,1.313-0.285
			c0.086,0.365-0.18,0.369-0.473,0.463c-0.201,0.063-0.576,0.246-0.801,0.357c-0.469,0.228-0.469,0.213-0.438,1.001
			c0.365,0.17,1.609-0.207,1.531,0.287c-0.053,0.311-1.078,0.178-1.531,0.178c-0.645,0-1.24,0-1.674,0
			c-0.189-0.555-0.189-1.689,0.107-2.11C72.483,34.684,73.282,34.967,73.528,35.427z M72.911,35.427
			c-0.955-0.258-0.59,0.781-0.656,1.396c0.279,0,0.561,0,0.838,0c0-0.406,0-0.812,0-1.215
			C73.021,35.556,72.892,35.564,72.911,35.427z"/>
		<path fill="#042539" d="M11.772,35.676c0,0.098,0,0.19,0,0.29c-0.393,0.187-0.982,0.105-1.533,0.105
			c-0.563,0-1.139,0.028-1.605-0.035c-0.139-0.059-0.26-0.317-0.145-0.504c0.527,0,1.131,0,1.715,0
			C10.769,35.537,11.386,35.442,11.772,35.676z"/>
		<path fill="#042539" d="M11.772,36.825c0.055,0.246-0.059,0.35-0.186,0.465c-0.088,0.074-0.152,0.064-0.256,0.145
			c-0.072,0.055-0.094,0.184-0.145,0.211c-0.076,0.047-0.205,0.031-0.291,0.072c-0.387,0.189-0.824,0.611-1.203,0.785
			c0.504,0.184,2.773-0.287,1.967,0.502c-1.012,0-2.018,0-3.025,0c0.057-0.141-0.094-0.074-0.107-0.143
			c-0.059-0.32,0.252-0.279,0.289-0.5c0.354-0.039,0.43-0.342,0.805-0.357c0.391-0.297,0.824-0.549,1.271-0.787
			c-0.342-0.064-0.824-0.035-1.271-0.035c-0.439,0-0.945,0.1-1.172-0.146c-0.023-0.203,0.166-0.199,0.221-0.318
			c0.994,0,1.992,0,2.99,0C11.655,36.792,11.69,36.829,11.772,36.825z"/>
		<path fill="#042539" d="M71.892,37.823c0.822-0.047,1.434,0.123,2.256,0.074c0.326,0.219,0.729,0.357,0.729,0.895
			c0.014,0.051,0.105,0.014,0.105,0.07c0,0.082,0,0.166,0,0.248c-0.158,0.293-0.24,0.674-0.469,0.895
			c-0.158-0.008-0.314-0.02-0.332,0.109c-0.975,0.049-1.73-0.113-2.586-0.18c0-0.154,0-0.311,0-0.465
			c0.955-0.033,1.619,0.223,2.586,0.18c0.205-0.139,0.197-0.475,0.332-0.68c-0.117-0.094-0.127-0.289-0.186-0.43
			c-0.123-0.082-0.379-0.033-0.436-0.18c-0.344,0-0.686,0-1.023,0c-0.139-0.197-0.604-0.074-0.912-0.107
			C71.882,38.167,71.882,37.999,71.892,37.823z"/>
		<path fill="#042539" d="M11.952,39.575c0.07,0.494,0.123,1.129,0,1.611c-0.473,0.479-1.041,0.865-2.115,0.752
			c-0.238-0.121-0.432-0.291-0.727-0.361c-0.234-0.41-0.449-1.182-0.293-1.75c0.197,0,0.391,0,0.586,0
			c0.332-0.246,1.111-0.053,1.455-0.285C11.319,39.614,11.667,39.376,11.952,39.575z M9.29,40.29
			c0.027,0.582,0.113,1.104,0.768,1.076c0.063,0.279,0.529,0.012,0.582,0c0.379-0.117,0.742-0.189,0.91-0.432
			c0-0.313,0-0.623,0-0.93C10.737,40.042,10.026,40.179,9.29,40.29z"/>
		<path fill="#042539" d="M72.985,40.542c0.055,0.109,0.02,0.309,0.217,0.285c0.094,0.461,0.115,1.09-0.105,1.43
			c0.098,0.223,0.561,0.094,0.652,0.322c0.195,0,0.391,0,0.58,0c0.186,0.232,0,0.578-0.326,0.537
			c-0.076,0.016-0.066-0.053-0.07-0.105c-0.797,0.055-1.18-0.301-1.969-0.252c-0.102-0.15-0.4-0.104-0.654-0.105
			c0.041-0.145-0.037-0.178-0.107-0.215C71.233,41.255,71.501,40.304,72.985,40.542z M71.778,42.187
			c0.314,0.006,0.453,0.178,0.84,0.107c0.006-0.387,0.18-0.607,0.111-1.072c-0.107-0.063-0.301-0.043-0.293-0.215
			C71.817,41.011,71.862,41.653,71.778,42.187z"/>
		<path fill="#042539" d="M12.425,42.294c0.268,0.469-0.234,0.5-0.51,0.645c-0.949,0.049-1.559,0.424-2.516,0.465
			c0.02-0.092-0.018-0.127-0.109-0.104c-0.031-0.227,0.027-0.357,0.109-0.469C10.519,42.765,11.331,42.388,12.425,42.294z"/>
		<path fill="#042539" d="M74.149,44.011c-0.045,0.576-0.832,0.422-1.203,0.68c-0.576,0.041-1.057,0.184-1.457,0.395
			c0.172,0.039,0.24,0.193,0.51,0.145c0.457,0.256,1.229,0.199,1.563,0.572c0.043,0.146-0.074,0.139-0.07,0.248
			c-1.057-0.107-1.809-0.516-2.846-0.645c-0.098-0.119-0.232-0.199-0.18-0.465c0.408-0.408,1.285-0.359,1.818-0.645
			c0.271-0.068,0.713,0.029,0.803-0.217c-0.645-0.184-1.246-0.396-1.967-0.5c-0.084-0.148-0.246-0.303-0.111-0.465
			c0.133,0,0.27,0,0.402,0c0.537,0.188,1.104,0.344,1.709,0.465C73.388,43.806,74.04,43.64,74.149,44.011z"/>
		<path fill="#042539" d="M12.897,44.12c0.012,0.201,0.119,0.314,0.072,0.57c-0.688,0.613-1.619,0.982-2.26,1.645
			c-0.248-0.057-0.203,0.184-0.4,0.182c-0.098-0.059-0.148-0.162-0.256-0.213c0.023-0.422,0.477-0.42,0.584-0.754
			c-0.189-0.291-0.258-0.699-0.398-1.037c-0.357,0.025-0.535-0.121-0.768-0.213c-0.146-0.664,1.338-0.236,1.824-0.357
			C11.624,44.202,12.513,43.909,12.897,44.12z M11.007,45.333c0.084,0,0.168,0,0.252,0c0.256-0.348,0.758-0.451,0.984-0.82
			c-0.471,0-0.949,0-1.42,0C10.79,44.872,11.021,44.983,11.007,45.333z"/>
		<path fill="#042539" d="M13.44,45.942c0.072,0.098,0.107,0.232,0.188,0.32c-0.486,0.813-1.174,1.422-1.676,2.219
			c0.746-0.09,1.313-0.67,2.258-0.678c0.061,0.08,0.096,0.189,0.07,0.355c-0.162-0.018-0.229,0.063-0.252,0.18
			c-0.17-0.02-0.291,0.004-0.328,0.107c-0.674,0.125-1.107,0.484-1.787,0.607c-0.162,0.146-0.367,0.258-0.729,0.213
			c0.021-0.09-0.018-0.129-0.107-0.109c0-0.746,0.488-1.021,0.877-1.391c0.086-0.332,0.354-0.486,0.545-0.721
			c-0.043-0.205,0.121-0.213,0.178-0.32c-0.354-0.033-0.619,0.314-1.055,0.32c-0.344,0.184-0.619,0.418-1.096,0.467
			c-0.01-0.205-0.174-0.258-0.109-0.533c0.354-0.111,0.689-0.23,0.986-0.393C12.175,46.458,12.587,45.983,13.44,45.942z"/>
		<path fill="#042539" d="M69.888,46.587c1.111,0.039,2.146,0.15,3.277,0.178c0.012,0.07,0.074,0.096,0.109,0.143
			c0.02,0.412-0.48,0.314-0.875,0.32c-0.189,0.387-0.311,0.844-0.438,1.287c0.135,0.215,0.445,0.254,0.477,0.576
			c-0.236,0.455-0.445-0.033-0.693-0.217c-0.039-0.023-0.141-0.014-0.182-0.035c-0.141-0.084-0.287-0.365-0.438-0.467
			c-0.055-0.035-0.17-0.021-0.184-0.035c-0.021-0.02,0.023-0.123,0-0.145c-0.053-0.043-0.164-0.033-0.221-0.07
			c-0.205-0.133-0.344-0.4-0.512-0.533c-0.023-0.025-0.111,0.02-0.145,0c-0.166-0.107-0.238-0.334-0.363-0.467
			C69.685,46.864,69.899,46.837,69.888,46.587z M70.546,47.407c0.455,0.111,0.479,0.652,1.059,0.646
			c0.055-0.344,0.326-0.463,0.289-0.896c-0.451,0-0.898,0-1.348,0C70.546,47.241,70.546,47.325,70.546,47.407z"/>
		<path fill="#042539" d="M69.888,49.876c0.807,0.055,1.248-0.246,2.076-0.184c-0.041,0.137,0.133,0.057,0.105,0.184
			c-0.32,0.547-1.596,0.176-2.002,0.643c0.117,0.156,0.121,0.313,0.324,0.467c0.219,0.16,0.826,0.229,0.803,0.572
			c-0.016,0.105-0.125,0.193-0.256,0.248c-0.857-0.424-1.598-0.957-2.555-1.289c0.064-0.189-0.135-0.123-0.105-0.283
			c0.322-0.459,0.797,0.279,1.131,0.033c-0.004,0.092-0.008,0.178,0.074,0.182c0.268-0.238-0.195-0.627-0.146-1.002
			c-0.211-0.289-0.508-1.203,0.186-0.93C69.612,48.999,69.78,49.411,69.888,49.876z"/>
		<path fill="#042539" d="M15.521,50.519c0.035,0.121,0.166,0.152,0.109,0.357c-0.828,0.521-1.822,0.883-2.59,1.469
			c-0.189,0.043-0.229-0.059-0.361-0.07c0.02-0.117-0.014-0.184-0.068-0.215c0.572-0.635,1.75-1.002,2.514-1.438
			C15.165,50.603,15.321,50.433,15.521,50.519z"/>
		<path fill="#042539" d="M15.995,51.341c0.07,0.098,0.105,0.23,0.186,0.318c-0.316,0.84-0.795,1.514-1.131,2.328
			c0.523-0.318,1.111-0.572,1.531-1.002c0.146,0,0.289,0,0.436,0c0.027,0.104,0.072,0.189,0.105,0.287
			c-0.232,0.076-0.229,0.393-0.578,0.354c-0.084,0.008-0.084,0.094-0.074,0.18c-0.625,0.307-1.221,0.641-1.678,1.109
			c-0.168,0-0.338,0-0.51,0c-0.027-0.207-0.105-0.371-0.07-0.645c0.447-0.619,0.809-1.328,1.131-2.072
			c-0.639,0.363-1.201,0.797-1.816,1.178c-0.219-0.002-0.279-0.156-0.367-0.283c0.406-0.596,1.289-0.715,1.713-1.287
			C15.368,51.774,15.403,51.284,15.995,51.341z"/>
		<path fill="#042539" d="M66.608,52.808c0.105,0,0.215,0,0.322,0c0.145,0.383,0.391,0.67,0.4,1.18
			c0.102,0.139,0.146,0.334,0.184,0.537c0.418,0.209,0.742,0.51,1.131,0.752c0,0.131,0,0.262,0,0.391
			c-0.148-0.041-0.141,0.074-0.256,0.072c-0.619-0.678-1.607-0.994-3.023-0.893c-0.006-0.186-0.02-0.377,0.072-0.469
			c0.504-0.021,1.096,0.047,1.527-0.035C66.823,53.882,66.513,53.392,66.608,52.808z"/>
		<path fill="#042539" d="M18.366,55.849c-0.096,0-0.199,0-0.289,0c-0.105-0.48,0.084-0.988-0.402-1.287
			c-0.238-0.023-0.436,0-0.547,0.104c-0.016,0.615,0.24,0.842,0.402,1.361c0.057,0.18-0.059,0.201-0.111,0.283
			c-0.061,0.098-0.057,0.287-0.107,0.359c-0.068,0.094-0.262,0.123-0.289,0.285c-0.541,0.197-0.916-0.063-1.313-0.217
			c-0.279-0.26-0.771-1.678,0.109-1.645c0.16,0.344-0.063,0.645,0.074,1.041c0.191,0.186,0.33,0.434,0.799,0.355
			c0.113-0.043,0.104-0.205,0.254-0.219c0.051-0.314-0.057-0.488-0.111-0.752c-0.037-0.186-0.215-0.295-0.25-0.533
			c-0.063-0.404,0.078-0.574,0.361-0.896c0.813-0.205,1.354,0.299,1.604,0.857C18.601,55.362,18.448,55.575,18.366,55.849z"/>
		<path fill="#042539" d="M65.729,55.599c-0.008,0.602-1.158,0.078-1.238,0.607c0,0.191,0,0.381,0,0.57
			c0.074,0.129,0.281,0.133,0.219,0.395c0.316,0.342,0.682,0.645,1.389,0.607c0.283-0.172,0.564-0.348,0.471-0.895
			c-0.172-0.371-0.641-0.148-0.729,0.145c-0.207,0.031-0.305-0.037-0.4-0.109c0.016-0.256,0.354-0.768,0.543-0.82
			c0.111-0.031,0.244,0.02,0.4,0c0.191,0.242,0.398,0.467,0.652,0.643c0.104,0.84-0.227,1.254-0.762,1.465
			c-1.164,0.141-1.611-0.424-2.15-0.893c-0.025-0.195-0.051-0.404-0.184-0.502c-0.09-0.73,0.254-1.035,0.584-1.359
			C64.946,55.421,65.534,55.261,65.729,55.599z"/>
		<path fill="#042539" d="M18.839,55.739c0.119,0,0.24,0,0.367,0c0.506,0.527,1.008,1.061,1.525,1.576c0,0.117,0,0.236,0,0.355
			c-0.584,0.07-0.621-0.387-0.947-0.572c-0.652,0.518-1.27,1.07-1.822,1.68c-0.125,0-0.24,0-0.359,0
			c-0.029-0.125-0.111-0.199-0.074-0.391c0.615-0.557,1.213-1.119,1.855-1.648C19.302,56.31,18.757,56.333,18.839,55.739z"/>
		<path fill="#042539" d="M64.056,60.497c-1.279,0.195-1.695-0.42-2.188-1.004c-0.102-0.418-0.254-0.791-0.107-1.213
			c0.057-0.156,0.225-0.242,0.184-0.43c0.197-0.021,0.242-0.191,0.473-0.184c0.096-0.227,0.604-0.053,0.875-0.102
			c0.758,0.395,1.426,0.889,1.422,2.037c-0.127,0.201-0.252,0.395-0.326,0.641C64.276,60.331,64.081,60.329,64.056,60.497z
			 M62.817,59.853c0.076,0.047,0.238-0.072,0.182,0.109c0.307,0,0.486,0.121,0.84,0.07c0.852-0.588,0.063-1.756-0.613-2.004
			c-0.242,0.021-0.582-0.047-0.768,0.035C61.786,58.483,62.339,59.569,62.817,59.853z"/>
		<path fill="#042539" d="M21.753,58.03c0,0.117,0,0.238,0,0.359c-0.195,0.318-0.736,0.498-0.947,0.893
			c-0.135,0.254-0.326,0.422-0.582,0.68c-0.26,0.262-0.441,0.59-0.912,0.537c0-0.156,0-0.311,0-0.467
			c0.779-0.602,1.338-1.428,2.072-2.074C21.579,57.911,21.575,58.063,21.753,58.03z"/>
		<path fill="#042539" d="M22.263,58.673c0.1,0.059,0.162,0.15,0.363,0.104c0.016,0.096,0.117,0.102,0.072,0.254
			c0.057,0,0.119,0,0.182,0c0.348,0.533,1.094,0.67,1.348,1.287c-0.162,0.084-0.197,0.172-0.324,0.182
			c-0.229,0.004-0.674-0.543-0.764-0.537c-0.086,0.002-0.363,0.303-0.439,0.393c-0.02,0.029,0.021,0.113,0,0.146
			c-0.092,0.145-0.281,0.186-0.363,0.281c0,0.063,0,0.123,0,0.18c-0.371,0.256-0.563,0.684-0.873,1.004
			c-0.277,0.02-0.414-0.096-0.473-0.287c0.555-0.67,1.064-1.387,1.643-2.035c0-0.064-0.051-0.078-0.037-0.146
			c-0.373-0.039-0.449-0.369-0.656-0.57C22.028,58.823,22.065,58.673,22.263,58.673z"/>
		<path fill="#042539" d="M61.251,61.962c0.676-0.146,0.783-0.852,1.566-0.895c0.063,0.082,0.094,0.193,0.07,0.357
			c-0.455,0.434-1.08,0.703-1.49,1.182c-0.102,0-0.197,0-0.295,0c-0.582-0.748-1.102-1.564-1.783-2.221c0-0.115,0-0.236,0-0.354
			c0.229-0.16,0.58-0.029,0.58,0.25C60.427,60.769,60.755,61.448,61.251,61.962z"/>
		<path fill="#042539" d="M25.14,60.677c0.133,0.355-0.182,0.504-0.256,0.682c-0.059,0.15-0.127,0.15-0.217,0.283
			c-0.156,0.229-0.123,0.455-0.361,0.537c-0.041,0.246-0.141,0.434-0.291,0.572c-0.027,0.57,0.27,0.832,0.875,0.787
			c0.521-0.561,0.934-1.229,1.313-1.932c0.273-0.018,0.525-0.012,0.469,0.283c-0.029,0.086-0.092,0.146-0.178,0.184
			c-0.02,0.227-0.133,0.367-0.291,0.465c0,0.059,0,0.119,0,0.18c-0.604,0.555-0.479,1.42-1.822,1.252
			c-0.09-0.012-0.16-0.123-0.361-0.07c-0.061-0.184-0.229-0.256-0.363-0.359c-0.15-0.373-0.271-0.729-0.105-1.105
			c0.01-0.01,0.096-0.021,0.105-0.035c0.02-0.033-0.021-0.109,0-0.146c0.031-0.049,0.162-0.088,0.18-0.143
			c0.021-0.037-0.02-0.109,0-0.141c0.068-0.102,0.248-0.166,0.291-0.287c0.021-0.053-0.021-0.135,0-0.178
			c0.031-0.055,0.148-0.063,0.186-0.109c0.02-0.031-0.021-0.107,0-0.145c0.031-0.055,0.135-0.068,0.184-0.145
			c0.135-0.193,0.111-0.379,0.291-0.502C24.974,60.558,24.964,60.708,25.14,60.677z"/>
		<path fill="#042539" d="M58.374,60.854c0.117,0.053,0.182,0.152,0.4,0.105c0.521,0.168,0.795,0.584,1.131,0.93
			c0.043,0.246,0.035,0.541,0.178,0.682c0.053,0.686-0.281,0.988-0.578,1.326c-0.354,0.021-0.623,0.127-0.951,0.066
			c-0.098-0.018-0.346-0.094-0.471-0.178c-0.094-0.063-0.598-0.639-0.654-0.857c-0.023-0.105-0.162-0.168-0.184-0.213
			c-0.02-0.047,0.021-0.146,0-0.217c-0.041-0.117-0.131-0.209-0.109-0.467c0.012-0.063,0.084-0.053,0.109-0.145
			c0.021-0.074-0.014-0.176,0-0.211c0.133-0.342,0.453-0.674,0.875-0.719C58.194,60.917,58.204,60.81,58.374,60.854z M59.61,63.073
			c0-0.168,0-0.334,0-0.502c0.014-0.082-0.104-0.039-0.107-0.105c0-0.781-1.109-1.451-1.783-0.787
			c0.021,0.297-0.191,0.363-0.111,0.715c0.104,0.039,0.131,0.16,0.111,0.324c0.23,0.18,0.387,0.428,0.58,0.643
			c0.146-0.002,0.252,0.035,0.25,0.18c0.367,0.039,0.627-0.029,0.877-0.105C59.382,63.204,59.575,63.216,59.61,63.073z"/>
		<path fill="#042539" d="M27.146,62.144c0.184-0.098,0.334,0.08,0.398,0.104c0.148,0.063,0.328,0.006,0.436,0.076
			c0.07,0.041,0.064,0.172,0.148,0.211c0.125,0.063,0.316,0.021,0.436,0.072c0.041,0.016,0.119,0.154,0.184,0.178
			c0.248,0.074,0.563,0.191,0.729,0.355c0.037,0.156-0.039,0.201-0.074,0.289c-0.467,0.055-0.691-0.135-0.949-0.289
			c-0.617,0.582-0.816,1.586-1.311,2.289c-0.133,0-0.271,0-0.404,0c-0.016-0.066,0.055-0.215-0.072-0.182
			c0.381-0.793,0.801-1.547,1.209-2.322c-0.184-0.189-0.406-0.342-0.729-0.395C27.146,62.403,27.146,62.272,27.146,62.144z"/>
		<path fill="#042539" d="M57.532,64.968c-0.104,0.02-0.207,0.109-0.324,0.107c-0.039-0.004-0.316-0.104-0.434-0.182
			c-0.057-0.029-0.063-0.148-0.111-0.178c-0.045-0.025-0.143,0.025-0.182,0c-0.148-0.111-0.391-0.402-0.582-0.537
			c-0.033-0.021-0.115,0.021-0.146,0c-0.166-0.131-0.354-0.354-0.65-0.396c0.236,0.408,0.354,0.938,0.65,1.285
			c-0.004,0.281,0.125,0.43,0.072,0.756c-0.117-0.02-0.184,0.01-0.217,0.07c-0.531-0.359-0.557-1.223-1.023-1.646
			c-0.008-0.424-0.236-0.625-0.471-0.82c-0.092-0.564,0.346-0.574,0.764-0.465c0.021,0.148,0.193,0.145,0.219,0.283
			c0.461,0.064,0.592,0.443,1.02,0.539c0.127,0.189,0.447,0.365,0.656,0.357c-0.211-0.113-0.094-0.553-0.363-0.609
			c0-0.072,0-0.143,0-0.213c-0.135-0.09-0.811-1.109-0.293-1.182c0.271-0.033,0.385,0.549,0.545,0.859
			c0.096,0.178,0.168,0.191,0.219,0.393c0.025,0.098,0.162,0.17,0.188,0.217c0.162,0.316,0.203,0.727,0.469,0.82
			C57.532,64.724,57.624,64.728,57.532,64.968z"/>
		<path fill="#042539" d="M54.802,66.114c-0.004,0.111-0.162,0.074-0.107,0.248c-0.672,0.123-0.473-0.602-0.764-0.854
			c0.023-0.209-0.086-0.281-0.109-0.432c-0.482,0.133-0.988,0.246-1.314,0.535c0.164,0.439,0.457,0.748,0.402,1.396
			c-0.123,0-0.242,0-0.359,0c-0.479-0.832-0.645-1.977-1.172-2.752c0.021-0.109,0.164-0.105,0.111-0.291
			c0.711-0.09,0.537,0.689,0.801,1.037c0.574-0.01,0.904-0.254,1.277-0.467c-0.236-0.24-0.535-1.805,0.184-1.104
			c0.145,0.549,0.342,1.047,0.58,1.502c0.008,0.195,0.031,0.377,0.186,0.43C54.526,65.69,54.673,65.892,54.802,66.114z"/>
		<path fill="#042539" d="M31.917,64.536c-0.434-0.211-0.941-0.355-1.385-0.568c-0.219,0.129-0.34,0.355-0.361,0.678
			c0.279,0.326,1.029,0.18,1.021,0.787c-0.146-0.035-0.166,0.059-0.219,0.107c-0.314-0.135-0.605-0.291-1.059-0.289
			c-0.018,0.326-0.275,0.396-0.219,0.785c0.443,0.201,0.881,0.398,1.416,0.504c0.078,0.111,0.092,0.275,0.078,0.469
			c-0.16,0-0.316,0-0.475,0c0-0.037,0-0.076,0-0.107c-0.666-0.078-1.1-0.375-1.676-0.537c-0.008-0.826,0.475-1.18,0.545-1.934
			c0.201-0.219,0.299-0.535,0.363-0.895c0.117-0.016,0.141-0.121,0.217-0.18c0.326,0.074,0.541,0.256,0.949,0.254
			C31.411,63.876,32.546,64.026,31.917,64.536z"/>
		<path fill="#042539" d="M51.124,65.038c0.053,0.307-0.686,0.316-0.586-0.033c-0.203-0.049-0.404-0.104-0.543-0.217
			c-0.42,0.146-0.932,0.703-0.58,1.248c0,0.125,0,0.24,0,0.363c0.238,0.273,0.541,0.83,1.02,0.783
			c0.07-0.006,0.309-0.117,0.363-0.182c0.105-0.113,0.152-0.396,0.219-0.568c0.125-0.092,0.35-0.092,0.475,0
			c-0.021,0.813-0.508,1.168-1.314,1.215c0-0.031,0-0.072,0-0.105c-0.264,0.041-0.377-0.063-0.582-0.072
			c-0.129-0.221-0.326-0.367-0.473-0.572c-0.025-0.148-0.037-0.32-0.18-0.357c-0.035-0.416-0.152-0.82-0.072-1.217
			c0.086-0.416,0.467-0.631,0.656-0.895c0.488-0.152,0.99-0.037,1.311,0.182C50.882,64.796,50.978,64.942,51.124,65.038z"/>
		<path fill="#042539" d="M34.399,67.616c-0.021-0.082,0.064-0.053,0.07-0.107c-0.182-0.398-0.221-0.982-0.07-1.434
			c0.082-0.256,0.299-0.416,0.289-0.645c0.408-0.256,0.934-0.561,1.527-0.355c0.131,0.043,0.209,0.162,0.363,0.176
			c0.127,0.295,0.32,0.521,0.469,0.787c0,0.324,0,0.646,0,0.971c-0.277,0.643-0.783,1.381-1.814,1.18
			C34.876,68.116,34.667,67.841,34.399,67.616z M36.474,67.185c0.07-0.328,0.152-0.633,0.107-1.07
			c-0.172-0.098-0.145-0.365-0.289-0.502c-0.266-0.25-0.586-0.15-0.951-0.072c-0.574,0.406-0.781,1.762-0.072,2.184
			c0.217,0,0.438,0,0.654,0C36.071,67.507,36.271,67.343,36.474,67.185z"/>
		<path fill="#042539" d="M48.097,65.075c0,0.094,0,0.191,0,0.287c-0.484,0.203-1.162,0.221-1.713,0.355
			c-0.074,0.352,0.115,0.438,0.109,0.719c0.43,0.029,0.773-0.025,1.127-0.072c0.41,0.727-0.875,0.371-1.057,0.75
			c0.211,0.104,0.012,0.609,0.215,0.715c0.621,0.061,1.006-0.109,1.496-0.18c0.154,0.008,0.135,0.182,0.291,0.18
			c-0.035,0.098-0.17,0.102-0.107,0.289c-0.779,0.021-1.309,0.285-2.148,0.246c0-0.104,0-0.213,0-0.318
			c-0.205,0.025,0.01-0.363-0.219-0.32c-0.055-0.129,0.125-0.021,0.111-0.105c-0.146-0.705-0.436-1.609-0.293-2.361
			C46.731,65.321,47.397,64.894,48.097,65.075z"/>
		<path fill="#042539" d="M39.862,65.612c0.021,0.18-0.021,0.285-0.072,0.396c-0.641,0.076-0.951-0.16-1.563-0.113
			c-0.057,0.213-0.1,0.715,0.07,0.828c0.42,0.004,0.938-0.086,1.021,0.246c-0.021,0.186-0.17,0.24-0.293,0.322
			c-0.242-0.1-0.541-0.137-0.914-0.107c-0.244,0.281,0.02,1.068-0.217,1.359c-0.209,0.025-0.344-0.021-0.475-0.07
			c0.121-0.953,0.244-1.906,0.291-2.938c0.195-0.289,0.48-0.057,0.912-0.104C38.88,65.646,39.548,65.454,39.862,65.612z"/>
		<path fill="#042539" d="M45.255,65.538c0.012,0.178,0.016,0.346-0.074,0.43c-0.232,0.082-0.615,0.018-0.91,0.039
			c-0.207,0.857,0.23,1.918-0.07,2.643c-0.227,0.068-0.221-0.092-0.365-0.105c-0.076-0.82-0.055-1.736-0.219-2.469
			c-0.063,0.018-0.064-0.025-0.074-0.072c-0.34-0.012-0.527,0.129-0.914,0.072c-0.119-0.223-0.061-0.215,0-0.463
			c0.518-0.115,1.209-0.063,1.826-0.074C44.591,65.312,45.083,65.47,45.255,65.538z"/>
	</g>
</g>
</svg>
